<?xml version="1.0" encoding="UTF-8"?>
<svg id="Layer_1" data-name="Layer 1" xmlns="http://www.w3.org/2000/svg" xmlns:xlink="http://www.w3.org/1999/xlink" viewBox="0 0 10116.69 3070.05">
  <defs>
    <style>
      .cls-1 {
        fill: #fffffc;
      }

      .cls-2 {
        fill: url(#linear-gradient-8);
      }

      .cls-3 {
        fill: url(#linear-gradient-7);
      }

      .cls-4 {
        fill: url(#linear-gradient-5);
      }

      .cls-5 {
        fill: url(#linear-gradient-6);
      }

      .cls-6 {
        fill: url(#linear-gradient-9);
      }

      .cls-7 {
        fill: url(#linear-gradient-4);
      }

      .cls-8 {
        fill: url(#linear-gradient-3);
      }

      .cls-9 {
        fill: url(#linear-gradient-2);
      }

      .cls-10 {
        fill: #908f8d;
      }

      .cls-11 {
        fill: url(#linear-gradient);
      }

      .cls-12 {
        fill: #bda554;
      }

      .cls-13 {
        fill: #305c4a;
      }

      .cls-14 {
        fill: #e0e7e0;
      }

      .cls-15 {
        fill: #172c20;
      }

      .cls-16 {
        fill: #0a0d0b;
      }

      .cls-17 {
        fill: #bc1e22;
      }

      .cls-18 {
        fill: #1a3d2d;
      }

      .cls-19 {
        fill: url(#linear-gradient-10);
      }

      .cls-20 {
        fill: url(#linear-gradient-11);
      }

      .cls-21 {
        fill: url(#linear-gradient-12);
      }

      .cls-22 {
        fill: url(#linear-gradient-13);
      }

      .cls-23 {
        fill: url(#linear-gradient-14);
      }

      .cls-24 {
        fill: url(#linear-gradient-15);
      }

      .cls-25 {
        fill: #07442c;
      }

      .cls-26 {
        fill: #c0cfc4;
      }

      .cls-27 {
        fill: #dbb69b;
      }

      .cls-28 {
        fill: #889e81;
      }

      .cls-29 {
        fill: #3e4240;
      }
    </style>
    <linearGradient id="linear-gradient" x1="1064.75" y1="3282.25" x2="1058.17" y2="3288.64" gradientTransform="translate(-3340.45 17419.54) scale(4.9 -4.9)" gradientUnits="userSpaceOnUse">
      <stop offset="0" stop-color="#05170d"/>
      <stop offset="1" stop-color="#21362d"/>
    </linearGradient>
    <linearGradient id="linear-gradient-2" x1="1248.71" y1="3075.52" x2="1248.08" y2="3080.87" gradientTransform="translate(-3340.45 17419.54) scale(4.9 -4.9)" gradientUnits="userSpaceOnUse">
      <stop offset="0" stop-color="#000"/>
      <stop offset="1" stop-color="#112620"/>
    </linearGradient>
    <linearGradient id="linear-gradient-3" x1="1344.12" y1="3105.32" x2="1352.09" y2="3118.49" gradientTransform="translate(-3340.45 17419.54) scale(4.9 -4.9)" gradientUnits="userSpaceOnUse">
      <stop offset="0" stop-color="#000"/>
      <stop offset="1" stop-color="#17291d"/>
    </linearGradient>
    <linearGradient id="linear-gradient-4" x1="1145.36" y1="3040.53" x2="1124.03" y2="3024.41" gradientTransform="translate(-3340.45 17419.54) scale(4.9 -4.9)" gradientUnits="userSpaceOnUse">
      <stop offset="0" stop-color="#030001"/>
      <stop offset="1" stop-color="#173828"/>
    </linearGradient>
    <linearGradient id="linear-gradient-5" x1="1151.4" y1="3125.78" x2="1163.25" y2="3150.71" gradientTransform="translate(-3340.45 17419.54) scale(4.9 -4.9)" gradientUnits="userSpaceOnUse">
      <stop offset="0" stop-color="#16050b"/>
      <stop offset="1" stop-color="#1c4331"/>
    </linearGradient>
    <linearGradient id="linear-gradient-6" x1="1259.29" y1="3135.2" x2="1260.79" y2="3139.84" gradientTransform="translate(-3340.45 17419.54) scale(4.9 -4.9)" gradientUnits="userSpaceOnUse">
      <stop offset="0" stop-color="#000"/>
      <stop offset="1" stop-color="#1c392a"/>
    </linearGradient>
    <linearGradient id="linear-gradient-7" x1="906.17" y1="3016.31" x2="913.91" y2="3041.26" gradientTransform="translate(-3340.45 17419.54) scale(4.9 -4.9)" gradientUnits="userSpaceOnUse">
      <stop offset="0" stop-color="#0a2b1d"/>
      <stop offset="1" stop-color="#29332d"/>
    </linearGradient>
    <linearGradient id="linear-gradient-8" x1="1111.96" y1="3072.31" x2="1158.38" y2="3091.23" gradientTransform="translate(-3340.45 17419.54) scale(4.9 -4.9)" gradientUnits="userSpaceOnUse">
      <stop offset="0" stop-color="#000"/>
      <stop offset="1" stop-color="#203b2e"/>
    </linearGradient>
    <linearGradient id="linear-gradient-9" x1="1406.66" y1="3079.13" x2="1446.48" y2="3094.24" gradientTransform="translate(-3340.45 17419.54) scale(4.9 -4.9)" gradientUnits="userSpaceOnUse">
      <stop offset="0" stop-color="#010302"/>
      <stop offset="1" stop-color="#1b2e23"/>
    </linearGradient>
    <linearGradient id="linear-gradient-10" x1="1437.86" y1="3084.22" x2="1406.84" y2="3104.12" gradientTransform="translate(-3340.45 17419.54) scale(4.9 -4.9)" gradientUnits="userSpaceOnUse">
      <stop offset="0" stop-color="#e2efe5"/>
      <stop offset="1" stop-color="#fff"/>
    </linearGradient>
    <linearGradient id="linear-gradient-11" x1="1282.15" y1="3041.32" x2="1274.17" y2="3040.54" gradientTransform="translate(-3340.45 17419.54) scale(4.9 -4.9)" gradientUnits="userSpaceOnUse">
      <stop offset="0" stop-color="#cbcfcb"/>
      <stop offset="1" stop-color="#fbfaf8"/>
    </linearGradient>
    <linearGradient id="linear-gradient-12" x1="1044.42" y1="3022.76" x2="1029.03" y2="3019.9" gradientTransform="translate(-3340.45 17419.54) scale(4.9 -4.9)" gradientUnits="userSpaceOnUse">
      <stop offset="0" stop-color="#010000"/>
      <stop offset="1" stop-color="#1e402a"/>
    </linearGradient>
    <linearGradient id="linear-gradient-13" x1="1012.8" y1="3020.74" x2="1039.83" y2="3010.32" gradientTransform="translate(-3340.45 17419.54) scale(4.9 -4.9)" gradientUnits="userSpaceOnUse">
      <stop offset="0" stop-color="#000"/>
      <stop offset="1" stop-color="#172e22"/>
    </linearGradient>
    <linearGradient id="linear-gradient-14" x1="884.03" y1="3177.98" x2="891.29" y2="3174.16" gradientTransform="translate(-3340.45 17419.54) scale(4.9 -4.9)" gradientUnits="userSpaceOnUse">
      <stop offset="0" stop-color="#1a271e"/>
      <stop offset="1" stop-color="#0c4434"/>
    </linearGradient>
    <linearGradient id="linear-gradient-15" x1="889.9" y1="3176.94" x2="898.14" y2="3176.4" gradientTransform="translate(-3340.45 17419.54) scale(4.9 -4.9)" gradientUnits="userSpaceOnUse">
      <stop offset="0" stop-color="#030000"/>
      <stop offset="1" stop-color="#103125"/>
    </linearGradient>
  </defs>
  <path class="cls-25" d="M789.38,1287.87c-37.92-65.15-70.64-18.5-93.74-32.24-4.4-7.36-4.05-6.84-3.41-15.47,11.5-21.17,36.62-28.7,57.29-37.69,132.78-57.77,266.65-105.86,409.66-131.38,48.01-8.57,91.26-25.05,141.17-13.25,47.44,9.88,72.41,35.32,93.12,78.36,25.83,53.69,75.15,36.35,123.11,38.28,25.73.47,53.01,2.22,77.97,8.77,90.82,23.83,143.85,117.73,187.55,194.64,42.52-77.04,76.04-98.87,159.69-123.75,70.43-19.2,141.53-35.83,213.17-49.87,37.92-13.55,146.82-35.1,190.4-44.68,81.56-18.26,163.37-35.41,245.4-51.45,38.75-7.39,94.54-19.32,132.72-20.21,60.68-1.41,138.48,13.6,193.99,38.63,14.74,6.65,40.65,22.45,48.69,36.45-1.78,12.95-20.09,15.83-31.08,22.24-27.7,16.16-47.77,34.89-59.32,65.26-15.98,8.46-31.71,15.12-49.68,18.63-102.19,19.95-205.71,36.11-309.04,48.94-34.07,4.23-67.69,12.79-101.92,13.06-40.12-1.19-81.41-16.42-120.83-24.02-43.96-8.48-91.26,1.38-134.99,7.73-16.93,2.46-38.28,5.9-53.73,11.18-44.81,47.07-77.87,110.26-107.11,168.24,88.93,82.19,288.56,88.3,339.78,139.51,47.47,47.47,184.78,244.37,209.13,304.68,81.74,1.54,164.83,13.6,246.04,17.95,49.2,2.64,107.11-7.33,157.59-3.62,243.16,2.6,575.89,12.46,759.26,193.78,54.01,53.42,73.86,83.58,72.46,161.24-1.69,94.85-39.58,194.1-77,280.6,31.02,2.43,108.1,2.46,128.72,27.55,20.33,24.76,11.53,86.5-17.68,104.22-49.43,29.97-116.46,29.39-172.36,39.55-18.77,34.55-43.16,40.73-80.82,41.5-29.74,72.57-69.28,120.8-140.73,154.68,76.07,5.9,153.43,10.85,229.03,20.41,10.85,1.37,46.98,5.94,56.18,8.76,7.92,1.1,11.65-.08,15.27,4.51-12.02,3.13-48.18,7.57-61.45,7.84-49.47,8.23-165.81,13.17-219.66,16.55-166.8,9.81-333.68,17.95-500.63,24.41l-582.51,20.29c-196.22,7.5-394.68,18.98-590.7,4.22-73.97-5.57-146.19-18.33-219.32-30.13l-287.85-46.73c-199.71-31.32-399.24-63.85-598.56-97.58-113.15-18.57-231.41-35.17-344.06-56.45-9.75-.12-35.12-3.4-45.97-4.48,25.32-4.05,65.8-2.48,92.31-2.09,48.45-2.49,107.6-.35,157.74-1.44-124.19-66.31-301.94-267.33-349.85-404.87-24.24-69.6-6.68-255.83,10.9-330.47,73.46-311.95,293.57-634.92,562.58-810.29,18.42,23.36,19.4,27.14,46.2,38.09,60.93-10.24,142.28-47.14,205.76-48.9,55.05-1.53,62.12,70.91,129.12,75.3,60.16,3.94,124.55-24.57,177.48-13.74,57.77,11.83,114.97,132.45,143.79,184.24-31.07,21.29-64.31,47.88-99.31,61.82-32.25,12.84-69.33,14.85-103.35,20.71-74.19,12.78-94.03,34.18-151.26,74.53-15.99,11.28-33.7,20.66-48.9,33.02-55.09,44.82-133.38,226.34-181.24,254.44-33.16,19.47-77.69,17.5-114.86,22.86-43.71,6.31-86.65,18.63-124.96,41.01-24.56,14.34-48.05,31.86-67.82,52.36-31.39,32.55-99.46,132.62-104.19,178.52-3.28,31.84,8.99,67.59-.94,98.87-4.25,13.38-20.05,16.21-31.58,22.67-15.03,8.42-20.36,20.95-24.89,37.21-7.9,28.35-9.54,72.72,6.29,98.36,10.81,17.5,32.7,19.95,51.1,24.59,15.96,17.8,20.57,34.45,35.93,53.29,9.19,11.28,60.87,39.68,63.91,49.63,10.12,33.1,12.85,73.64,21.36,107.9,7.68,33.05,13.87,49.14,26.41,79.31l37.27.18c-48.99-78.71-40.35-129.46-58.55-210.07l-.93-4.06c-19.19-8.35-47.38-20.8-61.29-36.25-45.51-50.56-25.95-57.6-94.39-77.28-12.16-25.06-19.67-61.25-2.77-86.15,12.42-18.31,24.47-18.25,44.74-21.9,10.87-30.54,14.41-65.28,13.29-97.54-.49-14.17-3.03-31.39-.2-45.16,6.69-32.46,34.68-75.77,53.1-103.15,69.24-102.91,148.81-131.1,267.15-143.54,26.15-2.74,58.02-4.53,80.64-19.19,48.32-31.32,119.91-211.98,181.91-258.5,16.45-12.35,34.67-22.64,51.6-34.4,49.16-34.14,82.61-56.78,143.3-67.99,33.68-6.22,70.51-8.23,102.53-20.43,44.74-17.05,87.41-50.51,126.44-77.89-34.89-58.54-85.43-155.45-134.81-197.67-48.42-41.41-125.31-16.04-182.02-8.09-74.8,10.48-82.95-34.29-120.97-63.83-45.93-35.68-195.02,25.79-254.07,35.87l-2.92.47Z"/>
  <path class="cls-1" d="M2158.59,1216.13c78.61-10.53,180.68-4.93,261.94-6.18,69.35-1.07,83.65,6.06,155.54-9.19-56.5,28-82.75,17.08-140.67,19.74-89.4,5.1-228.82-17.64-307.02,28.69-38.46,22.79-100.77,140.97-127.21,180.76-40.99,61.68-37.12,108.99-125.42,109-11.84-19.45-83.51-136.65-82.11-149.85.02-.14.12-.26.18-.39-5.2-3.71-7.29-6.25-11.71-10.82,42.52-77.04,76.04-98.87,159.69-123.75,70.43-19.2,141.53-35.83,213.17-49.87l3.8,2.55c-10.38,2.28-15.28,3.13-25,7.11l-.82,3.86c8.78-.9,20.25-7.27,25.63-1.66Z"/>
  <path class="cls-11" d="M1782.12,1377.89c42.52-77.04,76.04-98.87,159.69-123.75,4.64,3.74,8.93,7.15,13.42,11.1-80,26.62-117.29,48.71-161.4,123.46-5.2-3.71-7.29-6.25-11.71-10.82Z"/>
  <path class="cls-16" d="M1941.81,1254.15c70.43-19.2,141.53-35.83,213.17-49.87l3.8,2.55c-10.38,2.28-15.28,3.13-25,7.11l-.82,3.86c8.78-.9,20.25-7.27,25.63-1.66-65.5,18.52-140.36,26.99-203.36,49.12-4.48-3.95-8.78-7.37-13.42-11.1Z"/>
  <path class="cls-16" d="M272.62,2827.52c25.32-4.05,65.8-2.48,92.31-2.09l-2.87,4.44-3.77-.42c-11.82-1.25-30.56-4.54-39.7,2.56-9.75-.12-35.12-3.4-45.97-4.48Z"/>
  <path class="cls-16" d="M3708.06,2985.08c7.92,1.1,11.65-.08,15.27,4.51-12.02,3.13-48.18,7.57-61.45,7.84,14.31-10.28,30.66-4.11,46.17-12.35Z"/>
  <path class="cls-1" d="M1378.53,1954.47c53.58,16.52,304.32-17.96,378.89-18.42,70.31-.44,166.9-5.48,238.8-6.72,162.64-1.75,325.27,5.11,487.19,20.54,258.18,22.18,487.4,31.25,686.94,224.33-60.25-122.47-204.73-159.24-321.83-200.93,52.24,3.42,109.52-.83,162.11,2.48,192.94,12.13,428.9,25.17,600.74,119.9,17.32,9.53,49.19,28.56,62.93,41.21-10.21-.47-23.27-1.24-33.31-.85-34.92,1.18-67.88,16.47-91.31,42.38-28.89,31.47-40.15,67.25-38.66,109.46,3.22,89.65,42.92,171.19,146.84,162.81,44.09-3.55,63.01-15.68,91.99-48.44-12.74,43.09-38.74,135.64-62.37,170.39-7.8,3.59-15.27,1.95-24.11,1.31l-7.03-5.2c-9.56,4.03-13.46,6.85-23.35,5.66l-5.87-3.76-2.09-2.72c0-7.8-.32-9.91,1.17-17.68-2.25-19.23-14.27-55.88,4.46-64.6,10.97.38,11.29.55,21.02,6.09l1.17-10.43c-17.76-10.9-23.07,1.21-36.41-2.95l-2.33-7.33-.72-7.35c-5.14-3.87-8.48-7.72-12.62-12.55-36.93-14.58-54.05,6.1-66.11,38.99-15.83,43.27-19.53,83.43-40.39,125.12-13.62-8.48-34.44-22.7-50.31-23.87-22.1,8.11-10.93,25.86-38.42,38.97-8.32.43-9.83,1.36-17.05-2.7,3.22-12.57,26.33-13.56,27.17-32.92,25.52-39.28,27.45-51.45,35.53-96.91,19.01-2.15,42.48,2.16,57.35-7.83,4.7-6.88,6.27-10.39,6.11-19.06-.64-34.75-31.55-27.26-56.46-25.57.08-34.43-.12-54.12-22.3-81.37,17.08-2.13,24.43-2.69,31.55-20.06l-5.14-5.26c-16.2,26.82-37.29,10.08-59.2,1.68-76.95-29.53-211.06-42.48-293.05-36.32-17.04,3.58-32.28,1.96-49.04,4.93,6.14,5.21,16.5,5.61,25.88,7.7,31.52,4.05,61.84-1.01,95.33,2.84,76.74,8.83,184.6,11.67,247.77,59.62,10.89,8.27,18.73,57.12,12.62,67.01-7.43,3.21-4.14,3.3-11.01,2.57-16.2-33.62,22.38-55.68-39.87-77.6-42.56-14.99-90.28-25.87-134.99-30.52-57.47-5.97-118.88-9.25-176.54-9.24-119.61.02-507.31,22.75-602.02,68.92-9.45,4.61-16.34,13.02-19.45,23.04-4.44,14.25-1.91,30.49-.44,45.09-8.16,3.81-4.08,3.19-12.57,2.58-12.45-13.4-5.2-39.78-2.43-56.8,1.63-9.99,9.54-18.52,16.53-25.85l-10.03-7.81c-24.32,24.3-25.2,37.88-25.29,71.64l.04,12.14c-40.01-7.25-54.96,1.88-67.27,43.87-10.73,36.58-19.23,72.89-31.7,109.02-20.06-.64-50.01-1.94-69.85-5.67l-8.74-5.75c-21.23,5.3-31.29,9.42-49.79-1.15-5.28,8.23-4.91,9.7-15.95,12.44-59.96-3.49-186.28,2.45-245.1,11.36-39.92-41.09-42.67-77.32-56-130.35-18.48-73.55-43.29-183.16-94.02-240.94,77.93,9.22,109.75,22.84,193.01,20.75-75.46-31.14-98.94-33.34-178.82-46.57-85.13-14.43-171.21-22.52-257.53-24.2-81.44-1.88-162.91,1-244.15-.94,55.14-38.88,80.77-35.69,145.5-43.17,101.51-11.73,188.69-4.6,288.78,11.43,80.61,12.91,127,28.46,197.68,71.99,13.04,7.91,44.22,23.31,58.36,27.49l1.15-1.9-3.1,1.05,2.18-2.2-.68,2.51c-3.91-12.94-79.95-62.21-95.3-69.92-51.11-25.31-105.35-43.74-161.31-54.81-125.97-24.11-309.63-14.74-433.52,24.62-16.84,5.35-63.89,21.9-71.73,37.7,19.53,33.77,264.74,27.88,307.63,22.09-69.88,94.36-69.54,214.85-78.14,329.42-46.38.43-101.42-17.49-149.34-19.96-176.35-9.11-351.63-41.75-526.65-57.47-.27-84.23-10.32-156.17-15.71-239.73-1.25-19.33-3.21-25.08-17.25-37.21,15.99-5.49,41.98-13.47,55.99-21.26,2.04-7.89,2.15-3.97-1.19-12.11-81.04-60.76-192.01-31.89-274.72,9.42,39.29-63.66,69.27-103.67,141.05-135.91,20.06-8.87,40.92-15.81,62.29-20.74,28.3-6.34,141.73-19.85,167.02-10.33.88,1.45,1.77,2.9,2.66,4.34-10.58,11.7-38.02,39.45-45.25,50.74-23.51,36.71-36.31,83.1-35.1,126.35.93,33.16-4.32,80.05,21.65,104.37,5.24,4.92,23.64,9.12,30.85,9.76,57.63,5.14,115.42,7.7,173.23,11.48,10.34.68,64.63,5.18,70.84,4.24,58.56-8.86,49.84-148.79,65.45-194.18,11.44-33.26,12.95-44.09,35.42-72.66,35.13-44.65,85.06-57.61,139.58-62.54,59.37-5.37,123.07-8.43,182.81-10.05,224.24-6.07,545.89,6.71,727.73,154.07-20.41-4.75-43.54-11.02-63.89-9.69-97.1,6.37-150.79,92.01-143.46,183.84,3.82,47.82,15.34,92.81,51.57,126.63,28.96,27.03,75.96,38.33,114.07,36.39,45.7-2.54,88.55-22.99,119.26-56.91,29.68-33.29,39.21-73.94,35.91-117.61-12.31-171.11-188.17-253.65-331.16-295.7-231.92-68.21-463.34-45.33-701.25-29.53,9.4-9.79,19.45-17.53,29.98-26.01Z"/>
  <path class="cls-1" d="M3086.87,2316.62c31.52,4.05,61.84-1.01,95.33,2.84,76.74,8.83,184.6,11.67,247.77,59.62,10.89,8.27,18.73,57.12,12.62,67.01-7.43,3.21-4.14,3.3-11.01,2.57-16.2-33.62,22.38-55.68-39.87-77.6-42.56-14.99-90.28-25.87-134.99-30.52-57.47-5.97-118.88-9.25-176.54-9.24-119.61.02-507.31,22.75-602.02,68.92-9.45,4.61-16.34,13.02-19.45,23.04-4.44,14.25-1.91,30.49-.44,45.09-8.16,3.81-4.08,3.19-12.57,2.58-12.45-13.4-5.2-39.78-2.43-56.8,1.63-9.99,9.54-18.52,16.53-25.85,49.37-30.51,165.37-38.5,224.55-45.35,46.5-5.38,102.89-12.85,149.44-16.77,84.2-6.6,168.62-9.79,253.08-9.56Z"/>
  <path class="cls-16" d="M2299.84,2117.6c89.14,53.59,122.08,103.56,232.5,104.62,144.64,1.38,289.58-.44,434.16.94l218.69,2.68c49.17.72,100.26,4.92,148.8-2.84,11.64-1.86,25.28-13.66,25.76-26.26,3.56,1.69,8.09,5.34,10.63,6.16-31.32,44.7-91.05,31.51-140.82,30.33-33.83-.48-67.67-.63-101.51-.45l-448.31-2.07c-215.92-1.16-201.84,25.11-381.61-108.73l1.71-4.37Z"/>
  <path class="cls-14" d="M2197.17,2604.57c-12.39-12.24-26.91-31.47-25.36-49.89,6.47-77.14,120.62-70.6,105.52,12.38-3.42,18.78-14.4,29.08-30.37,38.67-21.23,5.3-31.29,9.42-49.79-1.15Z"/>
  <path class="cls-16" d="M2217.84,2506.35c23.06-.49,41.54,8.78,49.2,31.88,4.4,13.6,3.19,28.39-3.36,41.1-8.2,15.99-18.27,19.27-34.34,24.53-58.6,1.81-68.61-73.17-11.5-97.51Z"/>
  <path class="cls-27" d="M2219.93,2513.87c16.87,1.5,29.69,7.08,37.67,22.84,5.32,10.61,5.87,22.98,1.49,34.02-5.95,15.43-15.21,20.21-29.43,26.33-51.7,1.5-52.38-61.35-9.74-83.19Z"/>
  <path class="cls-9" d="M2449.77,2380.48c90.01-64.96,540.35-78.45,660.27-76.49-17.04,3.58-32.28,1.96-49.04,4.93,6.14,5.21,16.5,5.61,25.88,7.7-84.46-.23-168.89,2.95-253.08,9.56-46.55,3.92-102.95,11.39-149.44,16.77-59.18,6.84-175.18,14.84-224.55,45.35l-10.03-7.81Z"/>
  <path class="cls-8" d="M3037.61,2037.56c111.21,13.19,195.63,52.77,286.8,115.71,45.5,31.41,88.15,65.61,123.6,108.54,22.06,26.97,29.94,48.84,19.41,82.07l-5.14-5.26c1.85-15.8,1.17-25.21.48-41.09-20.13-35.62-62.33-65.4-92.38-94.63-2.54-.82-7.07-4.48-10.63-6.16-30.91-16.52-60.53-42.39-91.73-60.56-73.36-42.7-150.5-71.12-230.41-98.61Z"/>
  <path class="cls-14" d="M3614.1,2470.99c23.15-1.02,37.01-4.51,55.14,11.99,9.4,8.67,14.75,20.87,14.79,33.65.24,17.45-7.56,32.93-19.89,44.89-2.53,2.45-5.14,4.85-7.8,7.19-9.56,4.03-13.46,6.85-23.35,5.66l-5.87-3.76-2.09-2.72c0-7.8-.32-9.91,1.17-17.68-2.25-19.23-14.27-55.88,4.46-64.6,10.97.38,11.29.55,21.02,6.09l1.17-10.43c-17.76-10.9-23.07,1.21-36.41-2.95l-2.33-7.33Z"/>
  <path class="cls-27" d="M3626.2,2550.21c-2.25-19.23-14.27-55.88,4.46-64.6,10.97.38,11.29.55,21.02,6.09,19.49,23.86,14.55,59.6-16.84,66.69l-6.35-2.01-2.29-6.17Z"/>
  <path class="cls-16" d="M3652.84,2481.27c26.16,21.07,30.14,48.55,6.79,73.75-12.66,13.66-17.76,10.21-32.51,15.59l-2.09-2.72c0-7.8-.32-9.91,1.17-17.68l2.29,6.17,6.35,2.01c31.39-7.09,36.33-42.83,16.84-66.69l1.17-10.43Z"/>
  <path class="cls-7" d="M2181.23,2617.01c-.76-6.93-29.11-27.16-29.75-51.86-2.35-90.5,129.98-100.97,138.07-11.77,1.97,21.71-18.18,44.01-33.84,58.1l-8.74-5.75c15.96-9.59,26.95-19.88,30.37-38.67,15.1-82.97-99.05-89.51-105.52-12.38-1.55,18.42,12.98,37.66,25.36,49.89-5.28,8.23-4.91,9.7-15.95,12.44Z"/>
  <path class="cls-16" d="M3613.38,2463.64c15.87-3.78,24.43-3.18,40.75-2.76,49.27,27.85,52.4,77.35,9.24,113.04l-7.03-5.2c2.65-2.34,5.26-4.74,7.8-7.19,12.34-11.96,20.13-27.44,19.89-44.89-.04-12.79-5.38-24.98-14.79-33.65-18.12-16.5-31.99-13-55.14-11.99l-.72-7.35Z"/>
  <path class="cls-10" d="M2258.87,2092.46c14.3,7.77,28.53,14.69,40.97,25.15l-1.71,4.37c-12.87-7.55-27.35-19.95-39.26-29.51Z"/>
  <path class="cls-25" d="M1234.73,2253.83c42.09-5.45,92.18-2.1,133.61,6.9-3.86,26.15-10.72,58.88-13.12,84.15,1.55,7.69-.37,4.81,5.2,9.37,9.56-.25,16.36-1.61,24.43,3.09-3.95,9.46-23.63,6.85-32.72,6.61-4.67,28.86-4.83,43.72-6.55,72.33l.67,5.15c9.58,4.77,15.71,2.12,25.98,3.74-2.54,9.04-.04,5.57-7.58,10.88-9.91.94-12.87.19-22.91-1.23-4.03,20.14-4.76,51.38-5.18,71.9-40.03-.8-101.8-8.93-137.08-28.89,2.21-19.33,4.35-37.56,5.51-56.98l-.18-5.75-3.03-1.21c6.41-.74,7.77-3.28,12.6-7.86l-3.57-1.44c-5.8-10.19,3.52-53.83,5.9-68.18v-4.64s-4.5-3.38-4.5-3.38l7.54-.82-1.39-10.64c7.98-27.75,10-55.45,16.37-83.09Z"/>
  <path class="cls-25" d="M1214.39,2426.03c32.55-1.21,93.82,8.99,131.19,10.25l.67,5.15c9.58,4.77,15.71,2.12,25.98,3.74-2.54,9.04-.04,5.57-7.58,10.88-9.91.94-12.87.19-22.91-1.23-4.03,20.14-4.76,51.38-5.18,71.9-40.03-.8-101.8-8.93-137.08-28.89,2.21-19.33,4.35-37.56,5.51-56.98l-.18-5.75-3.03-1.21c6.41-.74,7.77-3.28,12.6-7.86Z"/>
  <path class="cls-14" d="M1214.39,2426.03c32.55-1.21,93.82,8.99,131.19,10.25l.67,5.15c9.58,4.77,15.71,2.12,25.98,3.74-2.54,9.04-.04,5.57-7.58,10.88-9.91.94-12.87.19-22.91-1.23l-6.04-9.3c-42.98-2.84-88.25-9.7-130.89-10.42l-3.03-1.21c6.41-.74,7.77-3.28,12.6-7.86Z"/>
  <path class="cls-15" d="M1335.71,2445.52c11.82-.07,24.83.15,36.53-.35-2.54,9.04-.04,5.57-7.58,10.88-9.91.94-12.87.19-22.91-1.23l-6.04-9.3Z"/>
  <path class="cls-25" d="M1234.73,2253.83c42.09-5.45,92.18-2.1,133.61,6.9-3.86,26.15-10.72,58.88-13.12,84.15-24-.53-119.65-3.16-136.86-7.96,7.98-27.75,10-55.45,16.37-83.09Z"/>
  <path class="cls-1" d="M1219.75,2347.57l-1.39-10.64c17.21,4.8,112.87,7.43,136.86,7.96,1.55,7.69-.37,4.81,5.2,9.37-47.84-1.26-89.76-6.87-140.68-6.69Z"/>
  <path class="cls-4" d="M1977.66,1944.18c76.27.45,166.14-.7,241.35,11.53,158.76,25.82,358.08,76.51,444.11,224.16-33.88-26.83-81.11-66.22-116.35-88.04-150.96-93.46-386.78-140.56-563.19-142.23l-5.92-5.42Z"/>
  <path class="cls-5" d="M2644.54,1986.95c134.47,19.46,267.52,42.1,377.08,130.1-94.24-46.98-181.97-73.5-283.73-100.94-30.44-8.21-68.36-15.6-97.08-24.27l3.73-4.89Z"/>
  <path class="cls-16" d="M2309.98,1946.69c46.08,1.78,128.12,5.55,168.79,22.79-56.61.29-159.57-8.73-215.57-18.07,10.27-5.94,32.76-4.27,46.77-4.73Z"/>
  <path class="cls-29" d="M2190.33,1941.78c23.71-.08,97.9,1.17,119.64,4.91-14.01.46-36.51-1.21-46.77,4.73-23.69-.07-49.75-4.81-72.87-9.64Z"/>
  <path class="cls-16" d="M1216.72,2356.41c-14.79-5.38-13.45.22-30.32-11.63l4.69-1.6c7.58,2.23,13.39,3.56,21.13,5.2l4.51,3.38v4.64Z"/>
  <path class="cls-29" d="M1156.87,2428.6c14.75,1.45,30.14,3.52,44.92,5.28l3.03,1.21.18,5.75c-19.31-1.29-29.85-5.89-48.14-12.25Z"/>
  <path class="cls-10" d="M1983.58,1949.6c-9.95.49-21.19.94-30.21-3.05,5.83-3.58,16.8-2.44,24.29-2.38l5.92,5.42Z"/>
  <path class="cls-29" d="M2640.81,1991.84c-8.32-1.6-14.63-1.11-19.37-6,9.67-2.09,13.06-.7,23.1,1.11l-3.73,4.89Z"/>
  <path class="cls-1" d="M779.61,2499.82l453.56,56.01c43.61,5.13,189.4,17.89,224.4,27.99-.07,62.5-4.26,120.51,21.92,179.02-151.87-7.95-322.75-43.62-472.84-69.87-53.21-11.19-108.2-17.64-160.14-33.79-15.25-4.74-26.82-15.05-37.68-26.28-20.41-21.11-29.83-63.55-24.45-92.46l.23-6.47c-5.72-9.78-4.71-22.29-5-34.16Z"/>
  <path class="cls-3" d="M784.61,2533.98c12.04-4.83,33.17-2.68,46.06-1.15,203.7,24.34,407.57,49.01,611.47,70.43,3.17.33,8.47,5.29,10.77,7.54l1.7,6.01c-16.02,16.17-467.31-51.54-528.02-54.93-13.03-.72-131.58-16.12-142.21-21.43l.23-6.47Z"/>
  <path class="cls-25" d="M1110.46,2629.37c14.8,10.4,15.36,43.21,2.76,57.58-25.51-11.48-14.54-40.04-2.76-57.58Z"/>
  <path class="cls-1" d="M3257.07,2669.73c10.57-1.08,22.74-1.59,33.47-2.31-.22,50.71.05,101.43.81,152.14-25.83.95-59.73,5.26-86.62,7.23-69.78,4.62-139.59,8.87-209.41,12.75-58.54,2.74-130.59.67-189.86.49l-36.16-.35c.45-52.09.31-104.18-.4-156.26,162.84,1.17,325.66-3.4,488.18-13.7Z"/>
  <path class="cls-18" d="M3015.68,2707.71c7.89-.07,8.66-.66,15.89,2.83.27,12.37,1.32,87.54-.99,96.66-9.45,3.76-4.66,3.22-14.93,1.29-5.64-7.81-3.89-34.52-4.08-46.59l-16.89,34.52c-5.11-8.96-8.39-14.47-14.48-22.76l-2.7,1.64.05,8.76c-.04,7.92-.22,13.1-.97,20.97-7.14,6.21-2.92,4.08-13.87,4.78l-3.38-4.2c-3.77-16.11-9.85-90.27,10.46-95.48,12.64,8.69,19.67,34.7,24.79,49.33,7.13-14.44,15.01-36.25,21.1-51.75Z"/>
  <path class="cls-15" d="M2889.62,2713.9c65.72-3.29,73.72,35.28,47.08,88.38-61.76,53.12-47.16-56.05-47.08-88.38Z"/>
  <path class="cls-1" d="M2907.88,2726.81c36.73,7.38,30.73,39.27,17.93,66.2-9.4,4.89-7.8,6.06-15.98,4.56-6.62-10.16-1.98-54.16-1.95-70.76Z"/>
  <path class="cls-18" d="M2799.3,2713.11l13.16.43c13.47,8.56,20.34,33.05,25.87,48.01,6.96-13.64,21.8-45.95,33-51.73,13.54,12.46,10.71,79.54,8.03,98.29-6.88,3.47-8.54,2.3-16.28,1.1l-2.97-4.17-.22-48.88-20.13,36.58c-5.96-12.12-12.81-24.71-19.11-36.73.14,11.35,2.22,40.4-4.29,48.59-9.5.17-8.66,1.68-15.17-2.59-3.79-18.85-1.99-66.78-1.9-88.91Z"/>
  <path class="cls-15" d="M3158.25,2711.19c12.42.56,18.49,1.18,26.97,11.02,1.81,9.09,2.94,5.53-.57,11.93-7.8.45-11.13-2.7-18.06-6.8l-2.88-1.73c-9.32,11.41-9.73,46.38-1.46,58.33,8.25-2.54,9.62-7.33,17.52-14.16l3.42-2.93c6.23,9.66,6.24,6.49,5.59,15.93-8.12,10.83-13.38,15.75-26.6,18.68-34.05-7.49-27.16-68.7-3.95-90.27Z"/>
  <path class="cls-15" d="M3089.74,2696.02c12.1,1.92,13.91,2.28,24.76,7.89-6.69,5.08-14.93,6.87-22.95,12.19-9.18,17.02,7.73,24.11,20.35,31.91-13.37,8.04-31.41,18.16-21.99,36.43,7.23,5.38,11.09,4.24,20.21,3.99l2.09,3.93-1.63,4.53c-12.03,10.37-20.62,9.96-32.7-.51-11.32-21.56,2.56-33.35.48-50.63-2.97-24.74-16.05-28.36,11.38-49.74Z"/>
  <path class="cls-15" d="M3209.52,2708.67l2.21-.07c13.43-.29,31.08,1.04,27.87,19.37-9.84,2.78-10.12-2.47-23.14-3.6-6.09,9.75-7.52,46.28,2.2,54.43,6.83-6.31,8.57-8.11,17.34-11.04,4.22,9.41,3.67,4.73,2.29,14.48-19.83,31.39-72.23-6.39-28.77-73.57Z"/>
  <path class="cls-1" d="M2189.73,2152.19c33.93-2.18,66.82,1.59,96.06,22.16,65.91,46.36,100.08,156.53,52.05,226.19-23.66,34.31-65.76,53.49-106.15,59.47-79.23,3.4-107.74-36.54-131.33-105.47-3.93-11.47-6.98-28.47-12.51-38.67-3.44,3.8-3.76,4.76-5.8,9.32l-1.96,4.43c-14.66-25.32,4.64-88.7,19.92-112.75,23.81-37.45,46.99-53.6,89.71-64.67Z"/>
  <path class="cls-2" d="M2196.74,2184.83c43.4-10.25,87.88-3.93,119.1,30.25,36.29,38.18,41.24,128.84,11.68,171.13-68.91,98.62-201.51,80.87-221.92-45.77-6.29-39.79,3.56-80.44,27.35-112.94,15.39-20.85,37.64-38.56,63.79-42.67Z"/>
  <path class="cls-1" d="M2203.27,2197.16c32.23-.25,47.33-.2,76.84,16.13,48.98,37.46,62.9,104.12,35.89,156.82-48.59,94.84-164.49,96.7-197.74-11.4-10.81-35.71-6.5-74.3,11.94-106.74,16.56-28.79,41.35-46.59,73.07-54.81Z"/>
  <path class="cls-25" d="M2147.24,2303.77c33.01,32.17,112.76,24.25,161.04,29.92l4.57,6.82c-7.89,18.91-11.4,25.67-23.19,42.69-35.01-5.26-82.53-.8-108.17-5.61-21.02-1.73-16.45,3.76-26.75-16.97-8.31-14.9-10.8-31.52-13.54-48.11l6.04-8.74Z"/>
  <path class="cls-16" d="M2154.74,2360.61l6.98-.92c17.69,1.25,56.97,2.66,71.51,9.26l6.68,5.13c-9.8,5.47-43.91,1.9-58.42,3.51-21.02-1.73-16.45,3.76-26.75-16.97Z"/>
  <path class="cls-14" d="M2161.73,2359.69c17.69,1.25,56.97,2.66,71.51,9.26-17.85.78-63.49,7.08-71.51-9.26Z"/>
  <path class="cls-16" d="M2231.87,2213.42c69.89,20.87,96.16,54.75,80.98,127.07l-4.57-6.82c4-68.01-20.63-89.55-76.41-120.26Z"/>
  <path class="cls-16" d="M2141.21,2312.5c.29-24.77,6.82-73.99,31.91-84.89.68,4.22-13.9,22.55-17.1,31.75-5.78,16.59-6.61,27.19-8.77,44.4l-6.04,8.74Z"/>
  <path class="cls-18" d="M2196.74,2184.83c43.4-10.25,87.88-3.93,119.1,30.25-15.02-2.21-27.38-11.66-39.43-10.34l3.7,8.55c-29.51-16.33-44.61-16.38-76.84-16.13,36.99-14.27,43.57,3.42,59.38,1.3l-3.62.98,3.01.05-.42-4.08c-13.1-12.39-47.03-9.79-64.88-10.57Z"/>
  <path class="cls-1" d="M1438.91,1726.78c175.68,4.28,277.97,19.49,446.76,53.75-22.93,26.33-40.28,56.93-58.5,86.72l-9.43,16.31c-19.88,2.71-43.17,4.33-63.22,5.07-108.25,4-218.6,16.8-326.53,20.18-.19-53.58,1.11-129.42,10.91-182.04Z"/>
  <path class="cls-6" d="M3546.63,2321.41c-8.76,4.34-5.26,4.8-11.85,2.81-54.94-130.91,147.2-262.31,220.1-92.39,23.67,74.07,6.91,167.88-76.76,194.41-23.31,7.63-48.71,5.17-70.13-6.8-42.28-23.57-48.67-57.13-61.37-98.02Z"/>
  <path class="cls-19" d="M3546.63,2321.41c-8.76,4.34-5.26,4.8-11.85,2.81-54.94-130.91,147.2-262.31,220.1-92.39l-5.55,3.4c-63.54-135.28-199.17-37.82-194.3,79.23-3.74,6.63-1.09,4.32-8.4,6.96Z"/>
  <path class="cls-14" d="M3754.88,2231.82c23.67,74.07,6.91,167.88-76.76,194.41-23.31,7.63-48.71,5.17-70.13-6.8-42.28-23.57-48.67-57.13-61.37-98.02,7.31-2.64,4.66-.33,8.4-6.96,9.44,63.58,49.11,124.62,121.97,101.12,28.81-9.07,52.69-29.46,66.15-56.49,19.81-39.5,20.78-82.65,6.19-123.87l5.55-3.4Z"/>
  <path class="cls-1" d="M3643.88,2187.75c86.6-5.58,120.72,88.33,88.53,157.02-17.12,36.53-38.06,48.33-73.9,61.12-39.5,14.85-74.63-24.25-86.72-58.23-11.41-31.83-9.64-66.9,4.9-97.44,15.39-32.72,33.35-50.37,67.19-62.46Z"/>
  <path class="cls-25" d="M3590.83,2319.64c.2-8.81-.24-11.12,3.17-19.47,38.74,5.73,93.39,12.06,132.78,11.09l4.7,2.62c-5.51,17.4-8.6,23.2-17.16,39.42-28.41-1.27-58.79-3.18-87.09-3.79l-15.19.67-1.73,2.76,6.59,11.74-2.17,1.58c-6.47-5.77-10.29-14.31-14.51-22.05l-9.4-24.57Z"/>
  <path class="cls-13" d="M3600.24,2344.21c8.76-10.83,24.8-12.11,36.25-4.82l2.25,4.79c-5.99,1.77-7.84,1.04-14.19.57l-1.73,1.15,4.42,3.62-15.19.67-1.73,2.76,6.59,11.74-2.17,1.58c-6.47-5.77-10.29-14.31-14.51-22.05Z"/>
  <path class="cls-16" d="M3688.65,2216.15c44.73,26.11,53.41,48.25,42.84,97.73l-4.7-2.62c.28-50.58-1.97-58.3-38.14-95.11Z"/>
  <path class="cls-29" d="M3590.83,2319.64c-4.02-24.44-2.25-60.23,10.25-82.03.6,5.33-6.19,49.92-7.07,62.56-3.42,8.35-2.97,10.66-3.17,19.47Z"/>
  <path class="cls-1" d="M2937.25,2427.29c16.18-31.35,37.95-64.95,74.23-73.91,78.5-19.39,128.65,34.17,137.97,105.96l13.91,4.84c-.99,15.42-1.15,21.84-5.31,37.12l-12.62,8.21c-21.34,78.49-76.38,122.8-157.99,90.22l-6.08,3.38c-5.94-.71-2.95-.02-8.94-2.17-41.59,3.15-61.63-57.2-70.88-88.89-1.09-17.53-1.39-26,1.94-43.2,4.47-12.86,15.81-44.84,28.46-50.01l5.3,8.46Z"/>
  <path class="cls-20" d="M2903.48,2468.83c4.47-12.86,15.81-44.84,28.46-50.01l5.3,8.46c-26.75,69.11-21.21,134.09,50.19,172.43l-6.08,3.38c-5.94-.71-2.95-.02-8.94-2.17-41.59,3.15-61.63-57.2-70.88-88.89-1.09-17.53-1.39-26,1.94-43.2Z"/>
  <path class="cls-16" d="M2931.94,2418.82l5.3,8.46c-26.75,69.11-21.21,134.09,50.19,172.43l-6.08,3.38c-5.94-.71-2.95-.02-8.94-2.17-71.19-34.7-62.34-119.85-40.48-182.1Z"/>
  <path class="cls-15" d="M3149.45,2459.33l13.91,4.84c-.99,15.42-1.15,21.84-5.31,37.12l-12.62,8.21c3.08-19.97,3.69-29.86,4.02-50.17Z"/>
  <path class="cls-25" d="M3106.16,2531.52c-.38-23.02-55.64-55.87-62.16-66.77,2.57-1.56,9.46-5.54,9.23-9.11-1.5-23.65-11.88-72.12-1.23-92.76,17.42-11.12,45.35,11.98,57.37,24.73,68.44,72.57,19.65,226.48-92.82,210.41-33.96-4.85-50.55-19.29-70.79-45.3,24.73-17.59,76.2-55.6,105.84-46.38l1.94-6.55c-14.75-6.37-18.78-6.42-34.19-7.99,24.96-36.58,69.69,25.25,86.8,39.73Z"/>
  <path class="cls-16" d="M3053.55,2499.78c-14.75-6.37-18.78-6.42-34.19-7.99,24.96-36.58,69.69,25.25,86.8,39.73l-3.17,3.28c-16.3-11.93-32.78-23.6-49.44-35.02Z"/>
  <path class="cls-14" d="M3053.55,2499.78c16.66,11.42,33.14,23.09,49.44,35.02,4.42,3.22,3.76,2.17,6.94,7.39l1.89.84-.59,1.86c-8.91-.02-49.55-31.26-59.63-38.57l1.94-6.55Z"/>
  <path class="cls-25" d="M3035.97,2359.93l3.82,1.79c-.47,8.09-16.06,95.08-18.53,106.86-14.29,17.63-55.51,51.9-78.92,78.95-3.97-7.88-7.5-17.31-9.38-25.89-7.9-37.16-.78-75.94,19.81-107.87,20.28-30.92,47.88-46.69,83.22-53.85Z"/>
  <path class="cls-1" d="M2474.12,2820.21c41.81,3.16,265.96,5.89,277.06,12.02,4.63,6.31,3.59,12.02,3.68,20.1,4.4,3.65,216.6,16.09,251.64,22.18,31.48,27.84,46.07,39.41,84.59,57.97-66.22-8.25-137.55-12.06-204.42-17.41-159.59-12.65-319.33-23.47-479.17-32.46-64.98-3.85-145.77-5.86-209.16-12.07-9.05-2.01-10.68-.53-21.71-4.2l-.63-4.97c.56-7.39.31-18.12,4.44-23.48,26.48-6.62,118.72-13.39,150.97-16.4,42.17,25.76,100.81,24.31,142.71-1.29Z"/>
  <path class="cls-1" d="M1684.69,2488.25c14.27-16.41,54.25-10.5,72.99,7.32,58.78,55.87,61.73,178.1,25.45,246.21-.69.62-1.38,1.23-2.07,1.85-7.99-3.26-5.81-4.24-12.04-6.27l-11.34.98c-76.75,122.41-144.39-44.21-137.77-116.82,5.06-55.54-4.79-91.68,55.9-120.77l8.88-12.51Z"/>
  <path class="cls-1" d="M1684.69,2488.25c14.27-16.41,54.25-10.5,72.99,7.32,58.78,55.87,61.73,178.1,25.45,246.21-.69.62-1.38,1.23-2.07,1.85-7.99-3.26-5.81-4.24-12.04-6.27l-11.34.98c11.68-25.76,18.11-53.6,18.92-81.88,2.17-61.7-25.56-155.28-100.79-155.71l8.88-12.51Z"/>
  <path class="cls-21" d="M1684.69,2488.25c9.62,2.09,27.91,3.98,35.33,8.32,71.7,41.99,82.54,175.7,49,240.79l-11.34.98c11.68-25.76,18.11-53.6,18.92-81.88,2.17-61.7-25.56-155.28-100.79-155.71l8.88-12.51Z"/>
  <path class="cls-22" d="M1676.65,2520.94c82.37,1.04,110.55,183.66,33.23,234.45-80.04,14.08-112.2-181.78-33.23-234.45Z"/>
  <path class="cls-1" d="M1645.95,2580.97c26.43-66.12,56.22-64.81,83.8,2.64,15.65,38.27,10.7,143.11-29.98,162.2-34.79,1.22-54.26-68.09-58.34-95.99-4.13-20.09,1.08-49.13,4.51-68.85Z"/>
  <path class="cls-18" d="M1651.55,2594.83c14.77-25.49,24.39-27.84,51.78-37.23-17.93,13.74-33.23,23.82-36.04,47.96-4.72,40.64,22.41,67.47,53.61,85.77-49.85,4.81-61.72,4.53-73.88-47.06-4.9,3.34-3.23,1.32-5.57,5.55-4.13-20.09,1.08-49.13,4.51-68.85,1.65,6.14,1.8,8.8,5.6,13.85Z"/>
  <path class="cls-14" d="M1645.95,2580.97c1.65,6.14,1.8,8.8,5.6,13.85-5.44,20.54-7.07,27.47-4.54,49.45-4.9,3.34-3.23,1.32-5.57,5.55-4.13-20.09,1.08-49.13,4.51-68.85Z"/>
  <path class="cls-1" d="M1377.33,1727.99l3.39,1.03c2.57,8.75-8.96,179.01-12.8,190.49-28.47,5.77-52.17,4.1-80.94,4.35-55.6.48-121.8-2.27-175.85,11.27l-3.77.96-2.09-.11c-1.63-6.61,34.98-89.46,39.41-106.25,4.01-15.24,17.41-51.67,24.58-66.29,80.88-24.47,125.81-27.35,208.06-35.45Z"/>
  <path class="cls-1" d="M2063.45,1724.51c41.84-12.11,203.29-61.66,229.8-38.67,29.07,25.22,111.64,170.82,133.2,208.67l-.97,5.73c-16.68,3.7-20.01-7.92-38.2.77-13.67-2.38-24.45-20.4-33.73-32.22-28.95-29.08-46.6-50.58-84.39-67.68l-8.06,5.37c9.82,5.06,14.52,6.78,22.41,14.23l1.04,3.78-1.98-1.35c-18.65-12.47-49.45-19.12-71.71-20.46-43.17-2.6-80.61,20.39-116.13,41.65,7.38-7.39,14.13-14.6,22.38-21.03l-3.45-2.8c-12.63-10.8-40.95-77.31-50.21-95.99Z"/>
  <path class="cls-26" d="M2117.11,1823.3c46.67-27.58,92.2-35.72,143.99-16.82,9.82,5.06,14.52,6.78,22.41,14.23l1.04,3.78-1.98-1.35c-18.65-12.47-49.45-19.12-71.71-20.46-43.17-2.6-80.61,20.39-116.13,41.65,7.38-7.39,14.13-14.6,22.38-21.03Z"/>
  <path class="cls-15" d="M2113.67,1820.5c42.4-31.46,107.03-43.21,155.5-19.39l-8.06,5.37c-51.79-18.9-97.32-10.76-143.99,16.82l-3.45-2.8Z"/>
  <path class="cls-29" d="M2353.55,1868.78c1.69-4.75,2.09-4.67,4.91-8.97,31.4,30.9,27.29,27.41,67.02,40.43-16.68,3.7-20.01-7.92-38.2.77-13.67-2.38-24.45-20.4-33.73-32.22Z"/>
  <path class="cls-14" d="M2353.55,1868.78c1.69-4.75,2.09-4.67,4.91-8.97,8.25,14.39,23.51,30.59,28.82,41.2-13.67-2.38-24.45-20.4-33.73-32.22Z"/>
  <path class="cls-1" d="M948.73,2714.12c123.77,27.04,276.4,50.48,403.7,70.65l108.55,16.62c19.78,3,47.97,1.14,57.05,19.92-5.35,4.8-21.99,2.76-31.38,2.77l-574.25.16c15.94-35.33,28.12-72.24,36.34-110.13Z"/>
  <path class="cls-1" d="M2340.58,2651.67c9.86-.59,23.88-.24,34.09-.31-1.67,40.38-7.52,72.33-17.37,110.89-63.3-.03-451.16-6.09-472.87-47.67.36-8.31-.36-9.3,4.51-16.09,13.78-7.71,24.49-.35,38.56,2.25,105.15,19.43,226.17,27.59,332.29,27.96,19.71-.36,104.5,3.17,105.13-23.58-10.54-9.6-254.07-12.13-283.4-14.38-67.8-5.2-137.68-8.26-205.22-23.61,72.89-16.99,144.93-10.93,220.32-11.41,81.33-.54,162.66-1.89,243.96-4.06Z"/>
  <path class="cls-1" d="M1713.07,2353.85c56.13,10.84,73.75,25.88,106.4,72.41-19.46-14.34-29.8-33.73-52.56-43.6l-8.08,4.91-4.34.98c-36.82,7.97-66.78,3.48-93.88,40.15-3.57,4.83-10.41,13.22-15.69,15.51l-11.63.8c-11.04,14.49-22.36,41.85-27.46,59.92-27.71,98.34-14.26,221.73,32.97,312.24,17.36,31.14,47.12,64.44,83.03,72.49,86.94,19.49,127.13-73.39,143.41-140.37l.78-3.29,3.11-1.82,3.39,3.71c3.04,14.79-12.3,45.38-19.09,60.7-19.08,41.62-52.1,95.3-96.81,112.98-35.51,12.15-80.78-1.76-104.14-30.1-105.42-127.85-122.49-355.53-19.75-489.76,17.14-22.38,35.75-30.22,60.68-38.21l1.17,1.66c11.41-1.29,8.13-1.32,18.48-11.32Z"/>
  <path class="cls-16" d="M1633.3,2445c30.65-49.37,72.96-84.23,133.62-62.35l-8.08,4.91-4.34.98c-36.82,7.97-66.78,3.48-93.88,40.15-3.57,4.83-10.41,13.22-15.69,15.51l-11.63.8Z"/>
  <path class="cls-26" d="M1644.93,2444.2c21.2-40.19,67.44-72.48,113.91-56.64l-4.34.98c-36.82,7.97-66.78,3.48-93.88,40.15-3.57,4.83-10.41,13.22-15.69,15.51Z"/>
  <path class="cls-14" d="M1720.47,1606.33c14.12-2.21,61.42-1.71,76.67-1.62,113.89.76,227.93,10.43,340.34,28.8,48.43,7.92,91.54,6.63,137.36,27.14-6.53-1.84-13.87-3.65-20.63-4.55-122.67-16.3-246.1-34.69-369.76-40.77-29.76-1.46-60.73.65-90.58.82-27.6.15-56.86-1.33-84.23.39-51.17,3.21-102.33,11.6-152.7,20.49-36.34,7.29-79.9,10.52-110.54,32.96-28.51,20.89-27.64,61-30.69,93.21-4.76,50.16-.88,102.49-5.42,152.68-.15,1.05-.31,2.1-.46,3.15,55.06,12.21,191.41-3.19,252.97-7.59,73.2-4.54,146.42-8.53,219.67-11.97,47.37-1.85,100.86-.94,148.66-.95,96.99-.8,193.98,1.38,290.84,6.53,61.71,4.32,123.62,11.09,185.48,15.77-30.57-56.52-71.53-116.09-106.4-170.5-14.43-22.52-32.54-43.42-47.08-66.96,43.89,40.91,141.4,193.6,170.63,250.02-316.32-37.64-619.66-28.31-936.28-5.44-37.26,2.69-160.31,13.68-187.78-2.39-7.8-14.05-2.49-96.13-1.49-115.51,6.36-123.38-2.21-153.16,132.62-178.46,63.71-11.95,123.16-19.3,188.8-25.21Z"/>
  <path class="cls-23" d="M1100.21,1728.09c4.91-10.73,10.71-23.02,22.84-26.87,1.65,10.07-17.1,50.98-23.38,62.68-38.79,72.29-53.93,156.26-87.25,229.47-42.07,3.91-75.63,7.09-117.83,7.08,5.55-7.46,11.93-15.6,17.07-23.23,35.59-69.87,73.32-134.48,118.53-198.82,22.07-31.41,33.42-47.13,69.29-63.77l.73,13.47Z"/>
  <path class="cls-1" d="M1100.21,1728.09c4.91-10.73,10.71-23.02,22.84-26.87,1.65,10.07-17.1,50.98-23.38,62.68-38.79,72.29-53.93,156.26-87.25,229.47-42.07,3.91-75.63,7.09-117.83,7.08,5.55-7.46,11.93-15.6,17.07-23.23l7.7,8.33c16.48-3.71,23.47-.41,39.41-.83,1.21-4.59,1.5-3.58,5.41-7.66l1.41-3.23c-7.88,2.05-7.41,3.32-13.94,1.15l-2.27-6.78c18.69-12.14,30.42-15.38,51.25-21.28l12.81-40.65c15.54-44.25,27.7-75.77,45.17-119.24,5.88-2.39,9.31-4.59,16.03-1.68,6.47-9.76,20.4-44.8,25.57-57.25Z"/>
  <path class="cls-15" d="M1013.44,1906.27l10.91,7.95c-6.85,21.56-15.13,50.83-24.9,70.52-13.16.16-27.64.69-40.68-.02,1.21-4.59,1.5-3.58,5.41-7.66l1.41-3.23c-7.88,2.05-7.41,3.32-13.94,1.15l-2.27-6.78c18.69-12.14,30.42-15.38,51.25-21.28l12.81-40.65Z"/>
  <path class="cls-28" d="M965.59,1973.83c9.28-5.26,17.14-11.27,27.39-11.44l.58,2.96c-10.17,8.52-15.97,8.94-29.38,11.71l1.41-3.23Z"/>
  <path class="cls-24" d="M1058.61,1787.02c5.88-2.39,9.31-4.59,16.03-1.68-17.13,42.35-35.41,85.81-50.29,128.88l-10.91-7.95c15.54-44.25,27.7-75.77,45.17-119.24Z"/>
  <path class="cls-1" d="M949.38,1968.2c-5.22,2.97-4.82,3.09-10.76,3.15l-.02-4.02c20.13-32.83,97.8-171.62,120.02-180.31-17.47,43.47-29.63,74.99-45.17,119.24l-12.81,40.65c-20.84,5.9-32.57,9.14-51.25,21.28Z"/>
  <path class="cls-26" d="M1099.49,1714.62c-10.09,34.56-32.57,21.03-58.33,58.69-47.52,69.44-90.89,133.8-121.79,212.23l-7.7-8.33c35.59-69.87,73.32-134.48,118.53-198.82,22.07-31.41,33.42-47.13,69.29-63.77Z"/>
  <path class="cls-1" d="M1902.04,1558.28c101.48-3.36,350.14,31.6,425.5,94.98-128.49-44.55-386.05-64.25-522.48-65.95-57.64.17-120.24.59-179.19,8.72-64.04,8.83-150.21,21.93-205.33,58.62-4.1,2.73-14.95,16.86-18.33,21.28l-2.12-1.34c.65-5.82,7.11-20.25,11.05-23.66,118.97-103.23,353.26-81.87,490.91-92.65Z"/>
  <path class="cls-1" d="M2355.4,2809.6c3.94-4,14.53-13.59,15.97-18.64,21.05-73.84,19.86-155.21,27.77-231.52,1.55-14.95-1.69-55.69,10.31-62.23,10.67,3.31,16.33,20.39,20,30,21.79,50.39,35.07,226.54,23.61,273.29-12.6,24.22-75.86,12.66-97.67,9.08Z"/>
  <path class="cls-15" d="M2429.46,2527.23c21.79,50.39,35.07,226.54,23.61,273.29-1.26-9.73-.4-31.1-1.37-43.69l-3.03-2.12-17.99-26.91c-3.23-61.68-6.7-122.98-12.63-184.46-.79-8.18-.32-7.03,4.69-11.94l6.72-4.17Z"/>
  <path class="cls-14" d="M2429.46,2527.23c21.79,50.39,35.07,226.54,23.61,273.29-1.26-9.73-.4-31.1-1.37-43.69l-3.03-2.12c3.24-14.42-.74-38.69-1.37-54.67-2.24-56.65-2.69-115.4-24.55-168.65l6.72-4.17Z"/>
  <path class="cls-18" d="M2407.63,2762.98c12.66,7.4,24.77,12.35,35.02,22.47l-.68,3.9-9.66,5.55c-10.27,3.88-14.75,6.45-25.47,6.52-14.48-8.17-4.15-25.8.79-38.44Z"/>
  <path class="cls-1" d="M3423.3,2499.18l7.56,3.09c3.62,12.4-7.76,42.39-11.98,56.31-11.29,35.08-45.09,47.52-77.09,55.76-63.23,16.26-127.05,28.02-192.18,32.48-30.26,2.07-62.02-3.97-92.76-3.83l-196.04.12c-98.45.4-223.75,6.55-318.71-25.83-36.12-12.32-59.3-39.22-74.54-73.71-3.64-9.34-7.33-15.79-4.81-24.92,11.37,4.01,19.21,32.56,25.13,43.21,12.18,21.93,35.85,37.55,59.68,43.92,46.12,12.34,98.74,12.73,146.34,15.95,93.42,6.33,188.17,12.7,281.81,10.89,82.02-1.59,356.1-20.11,417.4-57.89,21.56-13.29,24.5-52.63,30.2-75.55Z"/>
  <path class="cls-1" d="M1719.99,2427.8c63.51-4.33,98.85,54.45,118.62,106.08,6.55,17.1,11.92,42.19,22.52,56.54,47.87,64.81-63.96,59.13-7.14,133.58-20.1,54.79-62.65,137.86-132.21,85.23l-5.53-6.71c3.99-5.21,41.14-5.54,54.12-14.61,75.06-52.43,74.55-198.17,35.16-270.43-32.8-60.18-84.59-72.43-142.11-39.51,19.25-28.18,25.77-35.81,56.57-50.17Z"/>
  <path class="cls-1" d="M707.22,2414.6c-11.81-9.31-15.75-8.08-30.16-11.04l-1.03-2.85c12.19-12.97,21.69-15.62,38.39-20.53l4.32-1.3,2.6-.74c9.09,6.31,14.55,9.77,22.5,17.56,5.08,50.99,13.15,169.54-6.41,214.59l-14.62-2.83c-25.51,71.39-54.32,54.35-76.52-5.55,8.69,12.29,27.48,38.77,39.39,25.15,31.83-36.43,26.95-125.34,6.92-167.53-5.71-12.02-17.97-13.18-27.57-15.63-3.12-20.97,14.6-34.8,35.98-24.71l6.23-4.59Z"/>
  <path class="cls-1" d="M707.22,2414.6c-11.81-9.31-15.75-8.08-30.16-11.04l-1.03-2.85c12.19-12.97,21.69-15.62,38.39-20.53l4.32-1.3,2.6-.74c9.09,6.31,14.55,9.77,22.5,17.56,5.08,50.99,13.15,169.54-6.41,214.59l-14.62-2.83c20.43-55.72,12.53-139.31-21.81-188.27l6.23-4.59Z"/>
  <path class="cls-16" d="M700.99,2419.19l6.23-4.59c34.44,40.69,35.65,97.39,32.98,148.22-.51,9.8-3.62,38.97-2.78,47.47l-14.62-2.83c20.43-55.72,12.53-139.31-21.81-188.27Z"/>
  <path class="cls-1" d="M752.7,2711.48c-35.21,74.51-85.59,106.96-120.32,6.92-15.91-45.83-20.6-99.29-21.95-147.77-2.06-73.94.47-154.57,32.58-222.41,12.44-26.07,41.83-59.62,73.61-42.42,6.74,3.67,12.28,10.65,14.37,17.89-9.02-4.8-14.63-8.68-24.66-10.06-44.99,11.28-57.32,83.46-66.64,121.27-17.03,69.12-10.91,133.74-4.09,203.31,6.25,63.77,54.24,179.17,111.95,69.36l5.14,3.91Z"/>
  <path class="cls-1" d="M3579.58,2500.03c-2.85-12.59-4.38-17.45,4.3-28.05,18.93,3.36,29.7,112.54,30.94,132.99.12,43.2,9.52,90.19,5.91,133.58-3.62,43.46-46.54,35.07-75.63,29.73,9.32-11.83,18.41-25.25,20.86-40.24,12.14-73.53,13.62-154.09,13.62-228Z"/>
  <path class="cls-15" d="M3579.58,2500.03c-2.85-12.59-4.38-17.45,4.3-28.05,18.93,3.36,29.7,112.54,30.94,132.99h-7.43c.44,13.45,3.66,27.46-6.63,36.93l-6.83-.61c-8.12-9.47-4.26-115.66-4.22-134.94.32-1.86,2.17-5.76,3.01-7.7-1.65-8.4-.84-12.23-5.67-17.67-6.27,5.3-5.1,8.96-7.47,19.06Z"/>
  <path class="cls-14" d="M3579.58,2500.03c-2.85-12.59-4.38-17.45,4.3-28.05,18.93,3.36,29.7,112.54,30.94,132.99h-7.43c-3.58-27.33-6.83-75.32-17.68-98.62.32-1.86,2.17-5.76,3.01-7.7-1.65-8.4-.84-12.23-5.67-17.67-6.27,5.3-5.1,8.96-7.47,19.06Z"/>
  <path class="cls-15" d="M3605.58,2710.4c4.26,4.36,8.24,21.68,8.08,28.32-.68,26.68-26.08,25.93-41.75,26.05l-3.17-1.86.64-3.28c2.01-1.08,4.02-2.2,5.95-3.37,22.14-13.15,24.96-23.74,30.26-45.87Z"/>
  <path class="cls-1" d="M2869.29,2471.93c10.41-2.11,19.96-.33,34.2-3.1-3.33,17.2-3.03,25.68-1.94,43.2-6.2-2.86-4.92-4.86-11.84-6.78-20.66,2.72-54.98,1.95-76.56,1.15-121.83-4.5-243.66-10.28-365.46-13.79-3.98-.11-4.05-2.47-6.16-5.81l3.09-4.5c19.03-7.43,69.74-5.93,92.3-6.1l212.57-.35c32.56-.1,89.69,1.31,119.8-3.91Z"/>
  <path class="cls-18" d="M2869.29,2471.93c10.41-2.11,19.96-.33,34.2-3.1-3.33,17.2-3.03,25.68-1.94,43.2-6.2-2.86-4.92-4.86-11.84-6.78-2.37-11.61,1.6-15.69-.74-28.34-7.85-5.83-8.07-3.96-19.68-4.97Z"/>
  <path class="cls-1" d="M2659.77,1109.58l3-.14.7,2.19c-17.99,12.88-29.49,19.76-45.44,35.27-14.08,13.69-27.7,29.86-43.05,41.4-102.09,8.39-181.98,6.62-284.15,5.88-3.12-.11-3.77-.74-6.86-1.84,117.54-29.82,262.87-42.55,375.8-82.76Z"/>
  <path class="cls-1" d="M566.76,2238.43l1.72,2.28c-4.67,7.83-17.94,30.3-20.34,37.44-17.53,52.01-32.28,146.7-26.62,199.69,3.65,31.87,12.12,63,25.12,92.33l-1.8.43-7.59-7.72c-48.18-63.14-46.94-111.2-46.59-187.64l.73-112.48c28.67-7.29,47.9-14.17,75.38-24.32Z"/>
  <path class="cls-1" d="M653.4,2158.12c59.64,1.96,74.93,4.77,130.86,21.24l-2.71.59-4.5,1.04c-19.62,4.36-24.02,4.91-38.05,19.47-57.43-2.11-92.06.72-148.97,10.38-34.15,6-56.37,7.64-85.33,28.36l-2.93,2.13-3.77-.61c-.27-8.28,1.15-9.39,4.87-16.8,22.63-11.11,20.64-27.88,48.75-38.31,33-12.26,67.09-21.46,101.78-27.49Z"/>
  <path class="cls-1" d="M3635.64,2621c33.76-.93,68.96.08,102.76,1.36,21.74.82,70.93-1.94,83.15,17.2-1.97,13.29-2.05,13.68-13.74,17.42-56.78,5.49-113.21,9.71-169.99,15.75-.44-17.05-1.45-34.64-2.17-51.73Z"/>
  <path class="cls-1" d="M1121.48,2302.91c-9.4.26-18.81.38-28.22.37-45.77-.12-206.63,3.65-232.12-23.43-17.23-18.31-16.75-46.16-16.28-69.69,1.19-58.44,9.71-118.45,54.87-160.23,19.16-17.73,35.52-22.89,60.88-22.24-6.12,4.94-6.27,6.12-13.52,8.47-95.8,13.62-108.59,206.73-81.8,225.63,41.9,29.55,216.58,29.78,274.9,21.36-5.57,6.86-12.43,13.43-18.72,19.75Z"/>
  <path class="cls-14" d="M1243.21,1074.41c106.72-11.73,122.89,89.73,176.61,123.32,26.3,16.43,139.74-19.64,190.41,11.62,48.75,30.07,93.9,69.34,113.94,122.52-28.44-27.52-39.57-63.74-81.19-94.91-47.45-40.34-107.77-33.81-165.81-29.79-35.18,2.44-44.93,5.58-77.37-13.15-9.95-9.83-17.95-23.85-25.21-36.55-32.46-56.79-61.67-65.57-118.65-73.85-51.61-7.51-379.61,113.69-393.43,103.84,17.02-7.39,41.85-12.31,60.83-19.67,85.88-33.33,175.01-55.28,263.67-79.59,18.59-5.1,37.18-10.53,56.19-13.8Z"/>
  <path class="cls-1" d="M3163.36,2464.17c61.03.49,122.52,1.67,183.56,1.25,21.6-.15,127.42-8.48,138.87-2.09l-.84,3.37c-22.3,4.89-49.27,4.54-72.54,7.41-31.21,3.84-64.79,11.13-95.99,13.4-54.26,3.95-104.21,5.86-158.37,13.78,4.16-15.28,4.32-21.71,5.31-37.12Z"/>
  <path class="cls-1" d="M1982.66,1761.38c20.02,8.23,55.44,86.74,65.54,107.07-25.91-9.69-37.94-14.7-65.42-16.7-30.07-1.16-45.91-.78-75.17,5.73,35.52-31.15,44.7-60.71,75.06-96.1Z"/>
  <path class="cls-1" d="M2462.5,2581.79c96.77,86.8,156.35,67.13,278.5,71.81,79.4,3.05,156.25,6.88,236.39,3.37,4.9,1.76,9.7,3.11,14.13,5.7l-215.7,1.98c-102.63,1.15-257.85,31.58-313.33-82.85Z"/>
  <path class="cls-1" d="M1520.33,1241.77c23.16-3.31,35.94-1.56,57.69,7.7,53.36,22.71,151.81,186.02,167.89,236.25l-3.75,2.8c-7.9-8-18.58-35.24-26.25-48.03-16.69-27.85-33.49-55.64-50.39-83.37l-1.29-2.04c-86.83-136-130.46-100.58-272.16-78.62-15.32,2.37-46.4,9.18-61.25,5.91,17.31-17.76,161.78-36.94,189.51-40.6Z"/>
  <path class="cls-1" d="M2480.66,2657.8c6.03.17,12.95.51,18.87,1.44,27.59,4.2,52.37,19.19,68.87,41.69,9.56,13.13,17.88,31.6,14.17,48.19-1.91,8.27-7.14,15.4-14.47,19.69-22.2,13.15-70.6-.57-95.13-6.71,1.3-6.47,1.03-7.12,4.21-12.76,22.03-2.81,73.99,26.21,95.13-5.42,1.46-38.6-74.29-41.48-101.45-42.9-2.35-37.02,5.89-21.98,9.79-43.21Z"/>
  <path class="cls-1" d="M2590.21,2706.13c57.26,2.92,102.68,2.02,160.23-.16l.21,32.46c-37.8.76-92.41-3.81-130.26,1.84-7.1,1.06-8.85,8.8-11.58,15.22.87,9.47,1.25,11.32,3.67,20.56l-13.46-1.55c-8.87-8.8-.96-30.4-2.54-43.12-1.16-9.33-3.54-16.39-6.27-25.25Z"/>
  <path class="cls-1" d="M3814.31,2681.76l1.77,3.76c-1.17,1.54-5.18,6.59-6.19,7.58-26.68,25.85-133.18,37.39-169.19,38.99-5.26-6.02-3.46-24.65-3.3-33.36,51.8.09,126.71-5.78,176.9-16.97Z"/>
  <path class="cls-1" d="M3442.46,2659.17c34.96-8.33,56.98-24.51,88.37-36.93l9.2,40.26c-29.98,8.28-63.5,24.68-88.73,42.61-8.24.2-8.16.39-16.12,2.89l-7.84-1.84c3.26-1.31,5.22-2.69,8.28-4.5,5.26-12.44,1.89-19.02-2.73-31.33,3.94-6.74,3.74-5.66,9.56-11.16Z"/>
  <path class="cls-18" d="M3432.9,2670.33c3.94-6.74,3.74-5.66,9.56-11.16,12.02,18.31,11.01,23.72,8.84,45.94-8.24.2-8.16.39-16.12,2.89l-7.84-1.84c3.26-1.31,5.22-2.69,8.28-4.5,5.26-12.44,1.89-19.02-2.73-31.33Z"/>
  <path class="cls-1" d="M3432.9,2670.33c4.62,12.32,8,18.9,2.73,31.33-3.05,1.81-5.02,3.19-8.28,4.5-25.6.29-94.76,13.3-121.1,18.62l-.16-32.21c42.45-6.29,84.73-13.7,126.8-22.24Z"/>
  <path class="cls-1" d="M1655.35,2780.79c72.41,41.57,48.59,93.22,162.67,53.67l-17.41,19.48c-68.25,63.79-117.86-18.22-145.26-73.15Z"/>
  <path class="cls-1" d="M1360.71,1300.85c51.17,12.98,143.91,192.55,176.11,244.34-30.48-14.03-93.9-139.58-120.07-174.24-21.22-28.11-28.13-41.72-56.04-70.1Z"/>
  <path class="cls-1" d="M1137.7,1744.45c17.16-42.54,32.31-67.11,77.73-85.63,35.82-14.61,95.99-29.73,134.8-36.92-72.28,53.41-149,15.4-207.93,125.76l-4.6-3.21Z"/>
  <path class="cls-26" d="M2708.02,1160.54c49.12-6.81,137.28,28.4,159.4,71.63l-1.59,1.11c-75.41-59.73-127.06-86.75-221.95-45.81-45.04,25.7-90.48,80.5-141.58,85.25,8.27-3.36,30.33-12.1,36.9-16.18,72.09-44.77,82-82.48,168.83-96Z"/>
  <path class="cls-1" d="M1771.78,1491.56c5.83.17,3.57-.3,8.88,2.9l-.28,5.26c-24.24,18.92-161.8,52.81-195.08,59.49l-6.68.23-.93-2.5c12.94-9.52,167.06-56.29,194.09-65.38Z"/>
  <path class="cls-14" d="M1226,1135.52c54.74-10.32,86,16.19,109.32,61.88-34.69-37.46-49.57-58.57-106.79-54.63-39.17,2.7-68.1,12.4-104.66,24.8-46.22,16.29-82.18,36.45-130.21,30.56,76.67-8.12,139.2-52.6,232.35-62.6Z"/>
  <path class="cls-14" d="M2730.01,1109.57c60.86-3.43,132.26,17.48,189.59,38.35-38.76-2.84-94.68-20.86-138.15-28.13-70.32-9.28-105.38,13.74-165.9,48.41,34.55-33.3,68.27-48.43,114.46-58.63Z"/>
  <path class="cls-1" d="M2113.26,1851.19c54.67-37.27,76.78-38.13,136.3-9.65-53.96.88-93.88-.48-145.52,18.38l9.22-8.73Z"/>
  <path class="cls-14" d="M1489.21,1543.96l6.55,4.13.25,3.96c-6.03,6.96-29.42,21.94-39.3,29.36,28.65-5.94,62.59-12.5,91.34-16.2-22.31,10.05-39.23,14.68-62.7,21.04-26.63,8.68-61.61,16.53-89.97,24.89,31.62-21.91,62.9-44.3,93.84-67.18Z"/>
  <path class="cls-1" d="M659.6,2657.87c15.19,12.45,21.99,5.14,27.53,29.04,6.39,27.57,29.06,25.65,36.19,37.96l-3.56,4.51c-44.48,21.22-56.76-39.52-60.16-71.51Z"/>
  <path class="cls-1" d="M3415.66,2594.68c-.84,19.35-23.95,20.34-27.17,32.92,7.21,4.06,8.73,3.13,17.05,2.7-30.14,10.62-70.05,18.58-102.07,19.82l-9.72-9.06c33.95-9.58,86.74-14.31,111.47-36.98l10.45-9.4Z"/>
  <path class="cls-14" d="M875.15,1198.53l7.28-.53,2.34,3.63c-2.03,21.23-13.98,38.98-36.7,39.58-6.58-6.84-9.5-10.23-15.2-17.81-1.6-10.06-2.64-5.69,2.31-13.75,11.21-7.04,26.51-8.57,39.97-11.12Z"/>
  <path class="cls-16" d="M862.29,1211.04c7.54-.9,4.78-1.47,11.46,1.04-9.73,6.01-13.41,5.84-25.04,7.86-7.99.73-7.31,1.6-14.32-.79,9.94-6.08,16.5-6.24,27.91-8.11Z"/>
  <path class="cls-14" d="M1212.1,1991.05c28.75-3.28,50.78.2,78.75,5.77-73.41,6.52-93.97-3.12-172.08,17.35-20.27,6.83-30.28,18.49-47.42,31.14,36.34-50.74,83.95-49.52,140.75-54.26Z"/>
  <path class="cls-14" d="M1889.09,2745.65l3.19,3.98c-7.2,60.81-52.06,150.89-112.16,176.59-.48-1.12-.96-2.24-1.43-3.36,6.16-3.83,21.21-14.02,25.98-17.68,8.36-6.48,15.87-13.98,22.38-22.32,29.6-37.32,45.72-92.05,62.05-137.21Z"/>
  <path class="cls-1" d="M3413.81,2742.61c8.68-1.8,4.86-2.58,12.22.1l-1.97,4.23c-21.58,12.25-72.05,17.55-99.55,22.2-12.55,2.48-14.68,4.66-20.33-6.91l1.23-1.12-1.04,5.48,2.9-6.61c24.77-7.94,78.92-13.71,106.55-17.36Z"/>
  <path class="cls-1" d="M3545.46,2685.38c4.62,8.68,2.97,27.98,2.77,38.46-31.63,10.1-69.28,18.11-102.16,20.62l-2.29-3.12c17.16-25.43,80.66,8.24,101.67-55.95Z"/>
  <path class="cls-14" d="M2612.48,2776.05c-2.42-9.24-2.8-11.09-3.67-20.56,4.12,8.09,3.47,10.57,12.22,12.98,30.9,8.5,103.42-9.31,128,3.38-11.79,7.27-118.24,6.81-136.55,4.2Z"/>
  <path class="cls-1" d="M662.36,2512.37l4.01,2.36c5.79,15.21,3.08,56.98.59,73.47l-3.78,2.17c-14.14-27.67-17.47-50.68-.82-78Z"/>
  <path class="cls-14" d="M1986.41,1503.77c6.86,2.74,37.91,25.3,49.94,31.92,13.5,7.43,39.49,19.32,50.08,26.97-25.33-2.98-99.8-32.43-100.02-58.89Z"/>
  <path class="cls-26" d="M1949.82,1872.09c30.12-2.48,60.43-.47,89.96,5.96-5.47,2.76-42.04.68-50.09.35-30.41-.1-63.86.07-93.94,3.09,16.5-7.49,36.23-8.39,54.06-9.4Z"/>
  <path class="cls-14" d="M436.71,2445.93c-3.04,13.41,2.32,23.46-1.09,28.37-13.81-9.53-11.73-56.35,16.48-61.71l6.79,3.07c-1.37,12.19-1.13,13.17-6.92,23.62l-6.06,4.17-9.21,2.48Z"/>
  <path class="cls-29" d="M452.1,2412.59l6.79,3.07c-1.37,12.19-1.13,13.17-6.92,23.62l-6.06,4.17-9.21,2.48c4.3-16.12,6.86-19.64,15.39-33.34Z"/>
  <path class="cls-14" d="M445.91,2443.45c1.06-12.98,4.37-18.74,12.97-27.79-1.37,12.19-1.13,13.17-6.92,23.62l-6.06,4.17Z"/>
  <path class="cls-14" d="M2977.39,2656.96c34.32-4.49,91.88-4.01,126.73-4.18l4.12,5.2c-33.81.85-86.86,6.14-116.71,4.68-4.44-2.59-9.23-3.95-14.13-5.7Z"/>
  <path class="cls-14" d="M2176,2861.37l.63,4.97c11.03,3.67,12.66,2.19,21.71,4.2-22.82.3-78.1,2.32-97.36-4l2.52-2.29c18.96-4.26,53.22-5.16,72.49-2.88Z"/>
  <path class="cls-26" d="M960.61,2027.7c14.1-.05,86.66-4.02,93.56.66-41.01,4.17-66,7.6-107.07,7.82,7.25-2.35,7.39-3.53,13.52-8.47Z"/>
  <path class="cls-28" d="M694.69,2677.88c19.5-.11,31.8-3.79,37.4,18.44-20.7,6.96-25.64-3.81-37.4-18.44Z"/>
  <path class="cls-26" d="M1137.7,1744.45l4.6,3.21c-8.9,19.56-25.08,57.96-36.07,74.68,6.84-23.93,17.85-57.19,31.47-77.89Z"/>
  <path class="cls-14" d="M1978.03,1526.17c11.29,9.03,22.07,11.77,32.66,21.52l-3.8,1.47-39.95-6.52,11.08-16.47Z"/>
  <path class="cls-13" d="M2104.04,1859.93c-16.45,5.1-13.37,5.19-27.04,12.36,4.39-20.16,16.4-30.38,36.26-21.09l-9.22,8.73Z"/>
  <path class="cls-14" d="M747.56,2707.56c6.39-17.92,15.64-54.14,22.91-66.9-3.98,29.15-6.61,43.66-17.77,70.81l-5.14-3.91Z"/>
  <path class="cls-26" d="M1798.49,1537.21c6.75-.52,6.31-.74,12.21,2.52-3.39,5.32-4.37,3.86-12.83,5.85-7.27.27-11.81,1.23-18.19-2.16,5.1-4.79,11.6-4.91,18.81-6.2Z"/>
  <path class="cls-14" d="M2448.82,1271.12c12.02,1.35,17.54,1.64,25.46,9.93l-10.08,2.6c-10.42-3.83-7.29-2.81-15.38-12.53Z"/>
  <path class="cls-28" d="M3104.12,2652.79c10.41.07,19.03-.84,28.56,2.99-7.97,3.2-15.7,2.27-24.44,2.21l-4.12-5.2Z"/>
  <path class="cls-14" d="M3303.46,2650.12c-6.88-1.02-13.76-2.12-20.62-3.3l.08-2.5,10.82-3.26,9.72,9.06Z"/>
  <path class="cls-17" d="M116.13,2303.28c-9.6-33.01-23.1-68.03-34.08-100.91-20.52-60.4-37.93-121.82-52.15-184-68.27-311.65-13.56-663.05,102.98-955.88,160.59-403.47,516.45-762.4,915.88-931.8,414.88-175.96,896.07-170.83,1312.54-5.18-139.13,4.29-321.69,57.38-449.37,111.08-292.64,123.07-542.37,339.45-742.25,582.94-37.68,45.91-84.43,88.84-123.21,134.29-46.06,53.22-95.68,102.07-146.91,150.19-19.8,16.81-56.34,30.92-81.48,39.75-40.74,15.46-133.66,41.01-153.09,85.09-7.04,15.98-1.07,33.4,6.2,48.65-42.15,31.81-82.24,66.26-120.03,103.14-253.38,246.5-430.07,562.97-435.03,922.63Z"/>
  <path class="cls-12" d="M717.46,536.7c30.2,94.59,68.16,181.71,98.93,273.51,78.73-5.08,190.99.2,271.13,2.79-69.56,52.71-150.34,111.17-217.19,165.42,9.98,38.5,23.79,87.28,29.24,125.6-19.8,16.81-56.34,30.92-81.48,39.75-26.6-17.38-72.72-38.93-103.11-55.58-16.45,12.72-36.7,32.3-53.58,43.03-57.36,36.47-116.26,74.91-174.71,109.27,28.66-64.93,65.24-186.65,82.79-257.86-66.1-54.16-159.51-123.51-228.89-174.58,95.43,1.06,190.87,1.02,286.3-.12,33.72-86,62.13-183.11,90.58-271.24Z"/>
  <path class="cls-25" d="M719.49,683.21c4.87,8.54,16.7,41.76,20.88,52.84,14.77,38.97,29.34,78,43.72,117.11,55.04.98,110.1,1.47,165.15,1.46-44.93,31.16-91.74,72.34-136.73,106.12,17.51,48.58,33.68,113.21,49.6,164.46-11.53-9.45-130.93-90.15-144.29-94.66-48.13,30.46-92.86,66.9-142.63,96.78,17.87-54.87,30.53-111.5,47.44-166.97-47.35-33.32-93.78-67.94-139.23-103.81,57.06,1,118.4-.97,175.61-2.26,16.7-54.94,40.23-117.19,60.48-171.06Z"/>
  <path class="cls-25" d="M2380.69,168.78h2.09c-1.23,3.68-4.55,3.66-8.66,5.09-128.84,44.79-230.98,115.14-332.16,205.52-227.74,206.45-386.15,478.17-453.59,778.04-17.88-3.86-27.49-5.45-47.38-7.02-16.48-2.48-96.09,3.46-104.97-4.22-24.83-21.46-34.09-67.51-73.3-90.13-82.73-47.73-159.33-20.78-244.75-2.29-41.32,7.78-80.06,15.71-120.26,28.31,60.31-69.89,128.44-135.76,188.4-205.09,261.83-302.75,577.65-568.46,974.08-668.37,73.99-18.65,144.55-29.68,220.51-39.83Z"/>
  <path class="cls-12" d="M6755.1,718.25c186.2-25.78,357.87,104.72,382.8,291,24.93,186.29-106.39,357.32-292.82,381.39-185.22,23.91-354.93-106.35-379.7-291.42-24.77-185.07,104.73-355.36,289.72-380.97Z"/>
  <path class="cls-1" d="M6786.39,772.94c46.18.94,87.4,7.36,125.27,38.17,117.78,95.83,134.88,336.05,42.51,453.37-37.81,48.03-83.63,61.97-140.9,67.49-147.2-7.28-209.24-108.5-222.38-244.37-13.76-142.15,26.02-300.52,195.51-314.66Z"/>
  <path class="cls-12" d="M7314.86,1551.11c181.17-31.01,353.13,90.82,383.93,272,30.8,181.17-91.25,352.98-272.49,383.51-180.93,30.54-352.4-91.23-383.15-272.09-30.75-180.86,90.85-352.46,271.71-383.42Z"/>
  <path class="cls-1" d="M7341.84,1603.44c235.1-15.03,285.56,295.91,193.87,456.76-30.86,54.13-77.63,78.41-136.04,92.04-140.82,10.41-214.65-84.05-235.22-212.69-22.26-139.17,11.38-312.35,177.4-336.11Z"/>
  <path class="cls-12" d="M8535.83,1574.48c106.1,1.59,214.24-4.43,319.71.61,105.31,6.82,223.11,43.02,270.86,146.37,67.61,146.29,33.85,297.79-89.33,398.81-106.8,80.89-207.86,68.01-335.14,68.32-54.26.19-107.35,1.98-161.14,2.23l-4.2-4.83c5.41-51.41,53.05-14.86,54.68-83.92,2.6-126.97.76-259.89.89-386.3.06-58.51,5.83-90.38-47.74-112-8.81-3.56-7.88-20.05-8.6-29.28Z"/>
  <path class="cls-1" d="M8710.2,1618.67c83.66-3.02,174.83-12.44,243.61,46.45,63.74,54.56,81.02,132.28,79.59,213.24-1.39,78.85-16.36,134.65-66.77,195.72-3.13,3.03-6.31,6.01-9.51,8.92-68.98,63.24-157.14,61.01-243.87,56.98-5.18-38.52-3.02-135.89-3.04-178.69v-342.62Z"/>
  <path class="cls-12" d="M4782.84,1583.72c91.5-1.06,198.35-6.68,288.33,2.45,167.5,16.99,265.27,146.07,237.44,312.12-13.55,80.83-39.28,119.91-104.93,170.2-8.79,5.51-17.74,10.71-26.86,15.61-83.03,44.97-191.73,38.53-283.64,39.64-19.14.19-90.64,2.29-104.75-1.86-6.75-27.31,23.73-27.07,40.65-59.34,3.7-6.94,6.13-14.49,7.18-22.24,5.35-42.43,3.62-374.57-6.98-403.93-4.35-12.06-11.37-15.21-22.33-20.17-2.32-1.05-9.13-3.95-11.48-5.29-11.54-6.61-10.62-15.34-12.65-27.2Z"/>
  <path class="cls-1" d="M4932.47,1626.7l8.38-.49c25.88-1.48,49.31-1.99,75.18-1.51,194.37,3.59,256.2,267.46,136.64,394.49-72.91,64.66-126,61.32-217.89,58.16-5.07-71.41-3.63-155.71-3.8-228.11-.17-71.41-1.82-151.92,1.49-222.54Z"/>
  <path class="cls-12" d="M4835.28,736.87c44.83,17.78,154.26-7.08,179.03,20.56-6.05,21.82-45.81,29.53-65.56,35.69-9.97,75.25,11.2,247.17,12.94,328.05,4.43,54.87,5.67,110.44,12.47,165.02,6.2,49.74,69.07,34.36,68.17,75.31-1.02.84-1.94,1.81-3.07,2.51-15.52,9.53-222.41,6.78-251.55,2.86-7.83-7.96-4.76-3.37-7.11-15.26,11.09-17.2,74.11-17.11,75.14-70.83.79-41.7-1.73-83.67-3.2-125.39-2.52-96.5-7.02-192.93-13.48-289.24-58.29,143.25-130.02,284.18-185.28,429.31-7.98,20.93-24.17,67.55-45.27,75.3-19.77-18.74-163.87-356.94-185.83-406.56l-40.88-94.78c-2,128.26-17.04,305.58-3.54,433.3,1.98,18.78,46.1,32.77,64.02,41.5-.11,14.36,1.86,7.84-6.89,20.02-20.58,10.15-186.97,8.73-201.97-7.43,1.57-38.1,73.54-4.43,78.36-82.22,8.49-145.47,15.84-291.98,20.65-437.66,1.39-42.12-50.96-50.75-74.14-71.77-3.29-12.63-3.67-6.56,1.46-18.81,51.75-6.48,129.64-.55,187.42-4.67,67.82,135.72,124.62,292.19,195.7,425.61,64.96-142.96,127.03-288.37,192.43-430.42Z"/>
  <path class="cls-12" d="M6049.09,742.19c51.5-.74,88.73-1.9,139.68,13.28,129.42,38.54,150.99,188.63,55.54,275.93-20,18.3-40.9,26.87-65.86,38.38,50.47,73.33,76.68,164.84,146.22,226.74,24.32,21.65,89.45,34.53,90.61,66.19-25.4,9.97-130.95,8.71-156.67,1.7-78.98-21.54-123.31-145.71-160.96-217.87-10.9-22.59-20.1-39.63-37.42-57.88l-63.7-5.51c1.15,64.59-5.62,168.23,8.16,230.94,3.91,17.76,46.55,19.72,65.09,27.52l.73,11.94c-21.34,27.93-94.82,13.79-129.11,14.35-23.71.38-109.75,5.04-124.76-4.61-5.31-22.71,46.17-34.4,59.27-66.74,10.47-25.86,8.14-442.53-1.41-471.31-13.17-39.66-53.8-41.8-65.12-67.39l4.65-8.21c16.8-11.6,201.94-7.31,235.03-7.45Z"/>
  <path class="cls-1" d="M6011.46,788.93c17.65-1.29,34.23-2.43,51.9-2.19,105.75,1.43,151.27,106.7,105.59,194.81-8.81,17.01-19.35,25.49-33.49,38.12-45.23,28.34-86.57,26.13-138.02,27.84-1.57-33.79-5.43-234.41,3.03-254.8l10.99-3.77Z"/>
  <path class="cls-12" d="M6748.48,1570.42c33.66,7.8,126.79,3.64,166.24,3.36l6.96,8.77c-2.31,22.92-32,21.59-54.71,43.18-17.7,44.63,21,358.97,16.41,426.48-4.92,72.22,11.51,81.76,69.23,110.43,1.14,11.95,1.84,11.52-2.57,22.48-18.43,3.1-238.86,7.62-247.21,5.57-7.3-13.25-5.17-6.07-4.42-22.86,12.89-16.6,36.64-7,62.96-26.69,18.75-28.74,6.01-169.64,4.21-207.86-4.6-83.99-7.12-168.1-7.56-252.25-45.64,114.75-94.21,228.28-144.65,340.94-17.88,39.95-56.05,136.76-76.87,168.1-12.23,5.64-6.18,4.95-18.61,3.41-20.95-37.41-47-101.76-64.95-142.58-34.51-80.21-70.69-159.67-108.51-238.39-15.53-36.67-32.56-79.96-51.28-114.5-2.16,136.49-4.12,274.73-8,411.3-1.25,43.91,50.67,40.57,70.11,57.29l-.85,11.09c-4.6,5.57-5.55,8.18-12.57,10.9-13.82,5.33-170-.31-178.39-4.89-5.02-2.73-4.42-5.45-5.88-10.47,11.24-30.04,27.73-16.66,48.65-31.03,18.34-12.63,21.69-48.99,23.5-69.24,5.25-58.53,25.52-394.04,10.05-427.31-13.77-29.64-47.94-30.97-63.62-53.51-3.26-4.68-1.41-7.53-.58-12.7,28.4-6.53,150.75-5.07,188.74-5.23,9.71,19.91,18.65,39.89,27.47,60.2,53.81,124.04,111.96,245.87,165.55,370.05,60.57-138.55,137.71-295,191.13-434.03Z"/>
  <path class="cls-12" d="M9140.18,742.74l4.44,2.27c30.64,66.39,107.84,146.6,157.07,204.52,69.2,81.4,138.2,156.74,203.42,242.35-.31-114.01,1.3-257.41-9.35-372.68-2.48-26.67-57.35-41.76-53.64-67.04,16.78-9.76,162.58-12.31,173.05-3.6-2.54,37.81-56.67,35.92-55.62,72.97,4.95,181.87-7.37,377.55,4.46,558.04l-41,2.96c-26.63-34.6-62.8-74.61-91.91-108.29l-220.82-255.24c-38.55-44.86-88.87-100.96-123.15-148.07,7.8,133.13-6.71,276.1,10.24,408.71,6.41,50.1,27.97,41.63,58.39,60.99,1.62,11.91.38,13.64-2.36,25.19-13.38,4.81-159.83,1.68-182.65.66l-7.88-9.28c4-31.4,51.04-27.26,65.78-72.44,5.06-15.52,7.4-31.83,8.4-48.09,3.06-49.43,6.96-386.06-7.69-412.59-.68-1.23-1.47-2.38-2.2-3.58-12.97-21.46-34.22-32.73-50.95-50.46-6.63-7.02-7.81-11.02-6.96-20.34,18.87-9.3,140.12-6.26,170.92-6.96Z"/>
  <path class="cls-12" d="M7910.07,1572.88l51.98-1.63c92.45,142.31,266.86,306.42,369.93,449.06-8.73-126.72,8.13-271.59-19.91-395.11-.48-2.13-41.67-22.16-50.57-35.81l2.38-7.46c20.63-11.83,140.66-7.39,177.04-8.68,7,10.69,4.83,4.84,5.52,18.57-8.9,13.56-22.69,10.8-32.51,17.8-43.72,31.21-31.62,135.33-31.37,183.26.19,97.67,1.78,195.22,4.78,292.84.68,26.57,4.64,84.36-1.45,107.96-34.72,28.12-74.95-32.33-95.68-56.67-120.87-136.82-260.39-293.58-372.84-436.98,3.95,116.02-4.71,303.07,11.46,421.86,2.68,19.7,57.18,32.58,63.55,51.04l-4.24,7.31c-30.7,17.03-143.73,5.82-184.25,6.01-9.75.06-11.41-4.27-14.86-9.48,18.45-46.58,76.96-14.93,74.25-132.61-2.95-128.95,8.89-268.68-6.76-397.55-3.07-25.25-64.66-37.78-62.69-68.95,15.51-4.4,94.25-4.49,116.24-4.78Z"/>
  <path class="cls-12" d="M8189.74,726.04l42.91-.08c21.63,46.19,46.18,118.77,64.82,168.85,32.34,86.51,65.27,172.79,98.79,258.85,17.86,46.12,35.66,99.08,60.36,141.84,18.28,31.63,62.35,38.11,77.74,57.33l-1.68,14.38c-2.16,1.78-4.32,3.55-6.48,5.33-80.29-3.81-161.24-3.21-241.51-1.3-10.57.25-13.53-7.23-16.2-10.69,9.72-31.64,52.5-21.61,54.54-53.78,3.13-49.59-24.52-110.48-47.81-153.66-4.55-8.42-11.91-6.42-20.26-6.94-56.11-.29-113.24,2.32-169.41,4.34-16.53,39.32-44.4,109.37-50.43,151.12-5.56,38.44,48.08,26.5,64.61,43.95,2.06,11.94,1.85,11.1-2.39,22.56-8.17,4.75-170.36-.06-186.46-3.77-3.7-32.17,54.63-55.87,66.98-86.8,72.61-181.84,136.54-371.03,211.88-551.52Z"/>
  <path class="cls-1" d="M8174.76,887.86c14.41,17.88,67.23,177.27,83.2,214.12l-82.98.99-77.13,1.67c25.76-65.53,56.08-150.15,76.91-216.78Z"/>
  <path class="cls-12" d="M5418.72,726.67l30.49-.53c22.71,12.29,187.05,493.33,223.48,554.72,12.75,21.48,20.96,42.09,46.66,51.9,13.89,5.3,18.82,2.99,25.53,15.15-1.13,13.35,1.08,8.98-5.82,18.97-11.6,2.13-237.08,4.74-241.54,3.42-3.45-12.6-3.2-11.69-.15-24.49,24.83-28.21,89.99,8.18,36-116.73-10.62-24.57-23.19-56.86-33.76-82.32-15.04,1.52-32.65,2.05-47.95,2.91l-140.46.38c-15.91,42-45.63,110.11-49.2,154.65-2.73,33.87,45.26,23.06,64.8,40.14,1.67,12.51,1.64,11.6-3.8,23.05-7.59,4.01-174.6.94-188.16-2.78-4.94-40.72,16.94-24.51,37.35-45.83,24.43-25.52,38.93-62.39,51.83-94.83,43.47-109.06,85.84-218.55,127.1-328.46,20.33-54.92,40.56-109.88,60.75-164.84,2.29-1.49,4.56-2.99,6.84-4.48Z"/>
  <path class="cls-1" d="M5403.09,887.49c24.89,72.27,51.51,143.94,79.85,214.94l-81.74.43-73.77.4c25.88-68.95,50.21-145.44,75.67-215.77Z"/>
  <path class="cls-12" d="M9245.91,1572.91c128.52,7.11,297.48,2.11,428.29,1.51.87,29.65,14.06,142.27-9.72,157.51-27.31-12.24-17.96-59.48-41.43-82.9-36.48-36.36-146.85-30.75-199.25-30.8.81,77.74.25,155.51-1.73,233.24,26.88.12,121.83,3.78,144.81-3.59,9.23-2.97,36.73-55.81,55.31-68.87l5.45,1.24c7.37,22.3,8.67,178.25-7.31,194.61l-7.68-1.43c-11.89-12.33-12.02-25.89-15.3-43.36-13.25-14.06-19.82-18.27-35.86-29.36-46.33-1.11-92.66-1.18-138.98-.12l1.67,64.6c.12,34.68-7.87,149.95,12.7,172.12,39.21,18.27,128.58,9.35,172.55,1.49,52.34-9.29,73.77-64.41,106.34-100.09,15.86-4.34,8.73-5.14,22.17-.74,3.28,17.9-19.51,133.54-23.85,157.57-108.95-10.1-216.78-6.57-325.91-7.43-23.78-.19-127.07,4.83-140.28-4.15-5.11-32.95,42.87-27.31,56.05-56.11,11.48-25.08,12.99-447.85-.71-486.49-8.7-24.51-29.72-27.71-50.89-37.22-10.15-13.38-6.8-9.98-6.43-31.21Z"/>
  <path class="cls-12" d="M7546.61,725.76c94.6-6.83,184.53.4,266.49,53.44.35,33.05,17.16,124.16-3.81,145.24-12.67,3.14-6.71,3.43-18.56.11-12.75-18.18-15.77-35.8-24.26-55.75-33.1-76.16-151.43-117.53-228.54-94.09-104.88,31.88-152.46,128.18-158.21,231.02-6.84,122.45,21.49,268.03,150.66,315.95,60.62,22.49,118.95,13.71,176.01-14.57,81.64-49.9,75.95-106.31,119.07-129.81,9.85.45,5.83-1.55,12.92,4.45,12.97,31.4-24.29,126.95-34.29,164.36-129.61,53.33-321.37,53.15-437.79-30.73-60.54-42.59-104.76-116.63-114.63-190.68-29.02-217.66,82.37-363.62,294.94-398.94Z"/>
  <path class="cls-12" d="M9891.28,725.74c68.07-6.31,124.62,13.02,188.66,32.53,3.41,28.89,15.61,106.83,4.65,131.18l-5.88.72c-22.67-18.02-42.12-57.87-67.63-83.41-40.2-40.23-127.46-54.34-166.05-5.95-105.54,132.34,143.94,193.63,212.25,261.26,53.14,47.08,70.55,110.46,52.58,179.92-30.78,118.8-134.03,142.91-239.44,142-69.24-3.9-98.17-16.05-161.59-41.03-2.23-31.56-15.3-141.57,1.49-163.15,31.71-1.26,47.57,99.53,92.72,129.58,154.47,102.83,302.5-78.41,146.66-178.4-124.86-80.16-306.46-134.92-203.03-331.94,24.09-45.88,97.92-66.27,144.62-73.31Z"/>
  <path class="cls-12" d="M5366.08,1579.57c42.1,1.37,173.86,1.24,207.21,7.47l3.54,7.2c-8.5,20.32-39.99,29.31-53.79,48.21-5.43,7.44-9.02,15.73-9.77,24.97-3.78,46.49-3.1,252.87,3.7,299.94,4.99,34.56,19.65,63.73,48.4,84.36,30.58,21.99,72.17,28.68,108.83,22.79,33.56-5.39,79.04-23.72,98.56-52.71,22.27-33.14,29.12-321.62,18.32-368.82-4.91-21.45-29.73-30.99-45.47-42.95-9.04-6.86-11.94-9.54-13.87-20.74,15.22-12.1,65.11-5.3,87.02-3.82,26.82-.54,52.73-2.09,79.19,2.2l3.28,5.31c-8.18,27.81-55.15,38.22-58.1,65.8-12.1,113.48,14.31,275.82-24.14,381.48-37.51,103.06-228.41,100.77-310.76,59.71-93.93-46.82-83.99-142.21-83.29-230.28l1.21-148.51c.06-24.87.08-57.9-7.58-82.24-5.67-17.99-29.16-23.19-47.57-31.96-8.25-12.75-5.6-9.08-4.93-27.39Z"/>
  <path class="cls-12" d="M8619.49,742.73c73.73,5.01,166.86-2.31,241.88,2.33,7.91.49,10.75,7.95,13.81,13.81-7.91,24.13-46.22,21.59-64.86,40.31-21.83,46.68-3.93,255.74-8.79,317.55-3.77,47.86,3.03,125.74,4.17,175.71.7,30.51,36.16,37.68,56.21,49.17,5.31,3.36,3.93,13.66,4.53,22.43-17.21,8.55-212.67,5.15-243.59,2.48l-5.24-7.43c.73-32.96,46.2-25.5,58.76-52.55,5.62-12.12,7.86-25.91,8.91-39.13,4.32-54.13,6.68-433.95-7.97-462.45-9.89-19.26-31.7-21.65-50.11-29.59-10.34-13.55-6.87-11.72-7.72-32.65Z"/>
  <path class="cls-12" d="M3554.67,705.96c7.84,8.3,31.59,82.93,38.34,101.96,35.48.08,71.29-2.34,107.78-2.25-26.2,22.32-64.7,49.39-86.68,73.91,10.37,35.12,22.02,69.86,34.92,104.13-32.27-19.14-61.49-45.58-91.51-62.45-21.5,17.55-68.16,53.45-91.43,65.1,11.94-41.86,23.79-68.23,31.35-113.11-31.67-19.13-61.37-46.25-94.32-68.1,40.43,1.8,76.96,1.15,117.27-.2,11.05-33.64,21.54-65.97,34.28-99Z"/>
  <path class="cls-12" d="M2735.82,114.09c9.22,10.4,28.71,86.69,37.35,109.08,36.93-1.55,75.07-1.58,112.12-2.05-27.26,23.08-63.65,47.1-93.18,70.9,10.94,35.59,23.18,70.77,36.71,105.46-22.34-11.89-67.55-50.01-91.62-67.43-31.61,25.31-63.02,48.17-94.76,74.33,11.87-33.18,23.93-75.55,35.22-109.96-29.81-27.5-69.78-48.39-94.37-71.52,37.4-1.32,77.37-.91,114.98-1.13,12.24-37.07,23.21-71.37,37.54-107.69Z"/>
  <path class="cls-12" d="M3738.76,1170.82c8.52,6.89,31.63,88.8,36.41,104.12,38.1-1.3,72.58-2.47,110.59-1.34-21.02,19.32-62.97,48.86-88.37,69.93,9.2,35.41,21.98,73.9,34.2,108.33-27.93-22.39-63.33-47.51-92.71-68.74-27.45,22.19-59.6,45.23-88.09,66.55,10.13-35.12,20.98-68.33,30.58-104.02-33.88-23.89-60.12-43.62-91.79-70.13,39.3-3.98,76.15-5.02,115.54-6.31,10.69-32.97,21.9-65.77,33.64-98.39Z"/>
  <path class="cls-12" d="M3742.94,1660.44c4.78,5.33,29.62,91.97,34.24,106.48l112.48-.04-95.16,70.6c12.62,34.91,27.81,70.98,41.75,105.54-31.55-19.25-60.64-44.21-91.1-66.24-9.72-8.75-66.67,57.69-86.92,58.38l-2.53-4.02c.64-13.76,20.86-76.2,26.16-94.65-30.18-24.15-59.4-43.02-89.9-69.31,38.3-1.11,76.32-1.94,114.53-4.96l36.45-101.79Z"/>
  <path class="cls-12" d="M3217.04,335.97c7.88,6.85,30.86,88.72,35.62,104.24,37.82-.31,75.65-.29,113.48.07-30.82,19.5-67.5,47.86-97.9,69.75,13.21,42.85,24.59,67.7,43.18,108.13-29.85-17.84-62.53-43.67-92.76-63.76-8.41.7-73.06,52.97-87.01,62.39,11.61-33.33,22.21-73.92,32.84-108.55-33.13-24.35-66.43-48.47-99.88-72.38,43.08,1.67,76.61,1.5,119.6-.14,9.48-34.47,24.16-66.22,32.83-99.75Z"/>
  <path class="cls-25" d="M9178.87,2482.23c47.42-.19,158.68-10.65,189.98,37.97,14.49,22.48-14.45,54.5-21.16,78.04,19.05,48.19,56.65,28.43,26.17,105.97-45.96,52.28-129.83,38.34-195.1,37.84l.11-259.83Z"/>
  <path class="cls-1" d="M9225.79,2624.69c43.97-.5,146.09-8.3,97.61,67.57-29.52,11.64-65.82,9.35-97.52,9.1l-.08-76.68Z"/>
  <path class="cls-1" d="M9225.81,2523.3c33.21-.62,81.95-8.36,99.34,24.16.51,16.29.03,16.72-8.96,30.97-23.03,8.61-64.65,6.26-90.36,5.95l-.02-61.07Z"/>
  <path class="cls-25" d="M7809.08,2482.79c45.39.12,158.95-13.94,182.07,37.1,25.98,57.41,5.93,91.98-45.39,120.03,14.25,19.82,59,79.71,68.48,97.86-9.2,6.32-29.84,4.27-42.12,4.27-23.9-6.75-36.53-46.64-52.06-66.02-24.11-30.04-29.58-28.92-63.94-28.31.68,24.77,6.24,76.18-8.3,92.91-14.84,2.17-16.21,1.86-31.28-.25-12.89-13.81-7.36-222.42-7.47-257.6Z"/>
  <path class="cls-1" d="M7856.47,2523.23c46.95-.99,136.51.87,83.45,73.52-26.78,11.77-54.47,9.79-83.9,10.47l.45-83.99Z"/>
  <path class="cls-25" d="M5675.05,2482.91l52.84-.06,101.1,258.09-49.13,1.05c-10.27-31.03-10.48-58.59-45.1-60.08l-91.67.37c-6.57,19.76-14.57,40.26-21.83,59.89l-49.2-.87,103-258.4Z"/>
  <path class="cls-1" d="M5699.3,2533.27c9.75,17.59,34.7,82.56,38.94,102.57-10.5,5.39-25.41,3.59-38.4,3.53-16.41.12-21.08,3.03-32.83-4.03-6.98-20.69,22.06-75.44,32.29-102.07Z"/>
  <path class="cls-25" d="M7564.17,2482.85l54.05.25c33.12,86.59,67.3,172.8,102.52,258.52h-51.83c-7.62-23.54-12.11-57.04-38.15-59.77-31.53.25-63.9-.31-95.51-.56l-22.96,60.14h-49.39l101.27-258.59Z"/>
  <path class="cls-1" d="M7589.03,2533.76c8.16,11.83,42.18,93.9,37.4,104.92l-22.97.62-54.4.25,39.98-105.79Z"/>
  <path class="cls-25" d="M9020.08,2482.6c14.28-.62,27.1-2.42,40.59,2.23,9.38,12.76,6.16,12.39,6.93,31.71.66,88.69,21.49,225.7-103.43,228.24-145.9,2.91-114.2-164.57-113.44-262.3l47.17.19c.2,38.09-11.74,185.25,18.22,203.21,133.96,80.46,105.14-133.23,103.95-203.28Z"/>
  <path class="cls-25" d="M6273.45,2476.91c46.5-5.2,72.14,10.59,105.19,39.76l-35.76,29.11c-24.37-20.5-54.43-31.84-89.49-14.18-4.6,2.29-3.21,7.87-3.54,13.69,29.7,67.76,134.67,20.07,144.13,103.87,7.93,70.24-41.76,92.6-103.34,95.82-45.1-6.26-61.4-12.57-93.88-46.51l33.09-32.15c28.55,30.85,95.85,53.58,118.94,12.51,1.75-75.07-120.21-36.79-139.54-96.31-18.99-58.41,12.88-89,64.19-105.6Z"/>
  <path class="cls-25" d="M5997.14,2476.6c45.05-2.91,67.54,11.27,99.77,39.33l-33.71,29.3c-26.92-21.93-46.8-29.11-83.58-15.11-8.78,3.41-9.26,9.17-10.33,16.79,22,59.46,137.46,22.61,143.42,102.26,5.5,73.52-42.63,92.04-105.84,95.51-43-6.07-59.66-16.23-91.38-43.36l34.37-35.12c22.29,23.47,35.77,35.24,69.65,35.55,19.09.12,51.67-16.54,46.48-38.28-3.91-16.17-36.61-31.9-51.9-34.56-103.78-18.09-132.78-116.01-16.95-152.3Z"/>
  <path class="cls-25" d="M7258.03,2476.72c58.08-3.9,78.42,11.21,120.65,45.96l-35.52,31.65c-48.19-51.47-116.82-51.72-143.67,19.82-10.19,27.81-8.8,58.47,3.86,85.23,24.73,52.34,74.32,51.47,120.26,27.81,9.55-9.54,10.25-11.21,22.43-17.59,16.03,4.09,20.82,13.56,33.86,27-181.45,176.71-357.4-161.34-121.88-219.88Z"/>
  <path class="cls-25" d="M6770.67,2477.03c53.74-3.28,79.55,13.25,117.68,47.26l-32.18,29.73c-50.89-50.91-120.69-52.71-146.76,22.61-9.79,28.43-7.54,59.71,6.22,86.46,26.87,52.4,77.07,49.18,121.26,19.82l14.82-14.31,8.79.31c11.27,8.92,18.3,17.53,27.96,28.24-18.39,18.33-37.68,32.21-62.45,40.75-34.18,11.95-71.81,8.92-103.63-8.36-30.27-16.72-52.58-44.84-61.97-78.1-25.38-86.77,26.71-154.22,110.25-174.41Z"/>
  <path class="cls-25" d="M8378.31,2476.72c6.7-.37,13.4-.62,20.12-.62,42.61,0,69.9,18.64,98.5,47.07l-31.82,29.67c-56.7-50.11-128.94-52.15-150.31,30.97-7.32,28.74-2.76,59.15,12.63,84.42,27.94,44.97,76.13,43.29,116.59,16.23,8.03-7.93,9.07-10.16,19.61-14.43,16.49,5.26,19.89,13.38,32.92,27.31-44.37,43.36-105.18,64.91-163.06,33.38-32.69-18.02-56.38-48.87-65.38-85.1-21.58-85.1,27.41-150.69,110.19-168.9Z"/>
  <path class="cls-25" d="M5097.32,2476.66c53.8-2.54,80.28,12.95,117.96,48.25-11.71,9.41-23.61,20.13-35.05,30.04-48.82-52.34-117.45-54.63-144.08,19.02-10.17,28.86-8.41,60.57,4.88,88.07,26.31,53.76,77.9,47.63,123.37,22.3,7.91-8.05,7.68-8.36,17.47-13.69,15.31,4.46,20.79,14.49,33.16,27.44-21.19,19.08-41.35,33.69-69.11,41.75-32.97,9.85-68.53,5.76-98.45-11.21-32.29-18.95-55.11-50.6-62.9-87.21-18.44-83.61,32.04-147.47,112.76-164.75Z"/>
  <path class="cls-25" d="M8601,2482.79l47.33.06-.04,218.14c32.91-.43,89.7-2.79,120.52,1.42,6.01,8.36,3.99,27.75,3.9,39.33l-171.65.19-.06-259.14Z"/>
  <path class="cls-25" d="M5322.27,2482.05l46.14.62.2,217.83c41.35.5,84-.19,125.46-.37l-.76,41c-51.51,2.85-119.39.81-172.11.68,2.95-80.95.68-177.63,1.07-259.76Z"/>
  <path class="cls-25" d="M6493.96,2482.79l47.56.12-.16,259.02-47.4-.06v-259.08Z"/>
</svg>