<?xml version="1.0" encoding="UTF-8"?>
<svg id="Layer_1" xmlns="http://www.w3.org/2000/svg" version="1.1" viewBox="0 0 500 500">
  <!-- Generator: Adobe Illustrator 29.2.1, SVG Export Plug-In . SVG Version: 2.1.0 Build 116)  -->
  <defs>
    <style>
      .st0 {
        fill: #1d6e5d;
      }

      .st1 {
        fill: #67352b;
      }

      .st2 {
        fill: #ebf7f8;
      }

      .st3 {
        fill: #46342e;
      }

      .st4 {
        fill: #877d7b;
      }

      .st5 {
        fill: #e6f5f7;
      }

      .st6 {
        fill: #faf6f0;
      }

      .st7 {
        fill: #ebc71b;
      }

      .st8 {
        fill: #fbf8f6;
      }

      .st9 {
        fill: #af8981;
      }

      .st10 {
        fill: #fcf8f3;
      }

      .st11 {
        fill: #faf7f3;
      }

      .st12 {
        fill: #792c27;
      }

      .st13 {
        fill: #ecf7f9;
      }

      .st14 {
        fill: #4f3430;
      }

      .st15 {
        fill: #0c715d;
      }

      .st16 {
        fill: #156f5b;
      }

      .st17 {
        fill: #f9f4eb;
      }

      .st18 {
        fill: #4a413c;
      }

      .st19 {
        fill: #d3edf0;
      }

      .st20 {
        fill: #583731;
      }

      .st21 {
        fill: #f4f1b9;
      }

      .st22 {
        fill: #0f7164;
      }

      .st23 {
        fill: #48312e;
      }

      .st24 {
        fill: #f7f0b5;
      }

      .st25 {
        fill: #e7f5f6;
      }

      .st26 {
        fill: #fafaf6;
      }

      .st27 {
        fill: #e9f6f8;
      }

      .st28 {
        fill: #9d1c20;
      }

      .st29 {
        fill: #e4cd4f;
      }

      .st30 {
        fill: #f9f8f3;
      }

      .st31 {
        fill: #faf7f1;
      }

      .st32 {
        fill: #5a3731;
      }

      .st33 {
        fill: #eaf6f8;
      }

      .st34 {
        fill: #eac5ba;
      }

      .st35 {
        fill: #fff;
      }

      .st36 {
        fill: #6b3229;
      }

      .st37 {
        fill: #0e7360;
      }

      .st38 {
        fill: #f2fafb;
      }

      .st39 {
        fill: #1b675a;
      }

      .st40 {
        fill: #fcfaf8;
      }

      .st41 {
        fill: #31675b;
      }

      .st42 {
        fill: #625d5a;
      }

      .st43 {
        fill: #ecf7f8;
      }

      .st44 {
        fill: #090c0a;
      }

      .st45 {
        fill: #027463;
      }

      .st46 {
        fill: #269a47;
      }

      .st47 {
        fill: #341410;
      }

      .st48 {
        fill: #635954;
      }

      .st49 {
        fill: #1c6b5c;
      }

      .st50 {
        fill: #7a746e;
      }

      .st51 {
        fill: #e6f5f5;
      }

      .st52 {
        fill: #eef8fa;
      }

      .st53 {
        fill: #346960;
      }

      .st54 {
        fill: #f2fafa;
      }

      .st55 {
        fill: #f4e6d9;
      }

      .st56 {
        fill: #1e0f0d;
      }

      .st57 {
        fill: #4e3630;
      }

      .st58 {
        fill: #5f3934;
      }

      .st59 {
        fill: #c5a69b;
      }

      .st60 {
        fill: #2a6857;
      }

      .st61 {
        fill: #d3afa4;
      }

      .st62 {
        fill: #ceebec;
      }

      .st63 {
        fill: #dcbbb4;
      }

      .st64 {
        fill: #e7f5f7;
      }

      .st65 {
        fill: #877e7e;
      }

      .st66 {
        fill: #090907;
      }

      .st67 {
        fill: #eaf6f7;
      }

      .st68 {
        fill: #cceaec;
      }

      .st69 {
        fill: #7e7a76;
      }

      .st70 {
        fill: #fbf9f7;
      }

      .st71 {
        fill: #f5e7df;
      }

      .st72 {
        fill: #e5c5b8;
      }

      .st73 {
        fill: #61332f;
      }

      .st74 {
        fill: #3d1612;
      }

      .st75 {
        fill: #faf1eb;
      }

      .st76 {
        fill: #593532;
      }

      .st77 {
        fill: #f3e7dc;
      }

      .st78 {
        fill: #286253;
      }

      .st79 {
        fill: #060707;
      }

      .st80 {
        fill: #e9f6f7;
      }
    </style>
  </defs>
  <g id="nMBMCb.tif">
    <g>
      <path class="st45" d="M375.1,418.7c-125.3,93.5-305.9,20.6-332-132.5S169.2-2,321.1,52.3c157.7,56.4,188.5,266,54,366.4Z"/>
      <path class="st35" d="M239.8,90.4c127.7-7.3,212.2,132.4,144,241.6-61.5,98.5-205.4,99.1-267.8,1.2-64.6-101.4,4.4-236,123.8-242.9Z"/>
      <path class="st54" d="M308.4,444c-1.3-.2-6.2.4-6.8,0s-.2-2.1-.6-2.7-10.4-.7-11.5-.3-.8,2.5-2,3-3.7-.1-5.2,0l12.4-29.2,13.7,29.2Z"/>
      <path class="st54" d="M251.8,444c-1.7-.2-4.2.4-5.8,0s-1.2-2.8-2.1-3-10.8-.2-11.3.1-.3,2.5-1.7,2.9-3.6,0-5.2,0l12.7-28.6,13.4,28.6Z"/>
      <polygon class="st38" points="222.6 415.4 222.6 420.4 210.1 420.4 210.1 430.3 221.3 430.3 221.3 435.3 210.1 435.3 210.1 444 203.9 444 203.9 415.4 222.6 415.4"/>
      <path class="st38" d="M266.7,432.2l7.1-16.2c1.4-1.2,4.1-.4,5.9-.6l-12.4,29.2-13.7-29.2c1.7.3,5.5-.7,6.5.6l6.5,16.2Z"/>
      <path class="st27" d="M87.5,152.5c12.2-2.5,16.3,17,3.2,18.7s-14.5-16.4-3.2-18.7Z"/>
      <path class="st2" d="M240,79v-18c7.1-1.2,15,.2,15,9,0,8.3-8.3,9.6-15,9Z"/>
      <path class="st67" d="M74,261.2h-18c-.7-6.6.6-15.4,9-15.4,8.9,0,9.7,8.5,9,15.4Z"/>
      <path class="st52" d="M71.6,216.3c1.6,1,5.9-2.4,6.7-1.7-.8,1.2-.3,3-1.2,4-1.4,1.7-6,.7-5,4.6l4.4.6-.6,3.7-18-3.1c.7-6.4,1.9-13.6,10.1-11.7s3.1,3.1,3.7,3.5Z"/>
      <path class="st33" d="M333.9,100.7c-1.4-2.2,3.3-4.3.8-6.1-8-5.7-6,.5-7.7,1.7s-3.4-.7-3.6-1.6,7.5-15.5,8.4-15.7,2.3.8,2.7,1.6c.3,1.2-3.5,6.1-3.6,7.5s5.1,3.3,6.4,3.9c3-2.5,3.1-11.2,7.8-5.9-2.8,3.2-5.3,12.1-7.7,14.6s-3,.4-3.4,0Z"/>
      <path class="st67" d="M112.5,143.7c.9,1.1-.2,1-.9,1.3-4.3,1.3-9.6,1.2-14,2.5.9,1.4,7.8,4.9,8.1,5.9s-1.7,2.6-2.2,2.6c-.9,0-13.6-9.3-14-10.1-.6-1.2,1-.9,1.5-1,4.2-1.1,8.6-1.6,12.8-2.4-1.8-2.6-10.7-5.5-5.8-8.6l14.5,9.9Z"/>
      <path class="st2" d="M442.6,243.8c.2.1-1.2,2.1-1.5,2.5-2.6,3.3-6.3,6.1-9,9.3h10.6v3.1s-18,.6-18,.6c-.3-1.1.4-1.2.9-1.9,2.6-3.4,6.4-6.5,9-9.9h-9.9v-3.7h18Z"/>
      <path class="st67" d="M211.4,64.1l3.7,18-13.7-7.5c.7,2.2,2.8,7.5,2.5,9.6s-2.9,2-3.7-.6c-1.6-4.9-2.3-11.4-3.8-16.4l13.7,7.5-2.5-9.9,3.7-.6Z"/>
      <path class="st43" d="M152.3,107.7c-3.1,4.7-4.2,1.7-7.3,1.4s-2.4,2.7-.2,4.5l-3.7,2.2-10-14.6c3.4-3.6,12.5-7.9,15.1-1.4s-1.8,6.9,6.1,7.9Z"/>
      <path class="st33" d="M428.3,179.8l-5.6,13.7c.6.6,7.8-3.1,9-3.1s.8,2.4,1.6,2.8l-17.4,6.5,5.6-13.7-9,3.1-1.3-3.1,17.2-6.2Z"/>
      <path class="st80" d="M327,76.6c.2.3-.8,2.3-.6,3.1-1.7,0-7.7-3.3-8.7-2.5s-1.8,4.5-.3,5.5c2.7,1.9,6.5.3,4.6,5-1.3.2-7-2.8-7.4-2.5s-.7,2.4-.6,2.5l7.8,3.1-1,3.1c-1.4-1-10.8-3.9-11.1-4.4-1-1.5,5.7-14.6,6.1-17.3,1.4,1,10.7,3.8,11.2,4.4Z"/>
      <path class="st67" d="M60.9,229.5l-.6,8.7c1-.2,5.4.2,5.6,0,.7-.7-1.6-8.8,3.7-6.8-.2,1.3-1.1,7-.6,7.5s2.4,0,2.5,0c.3-.3.7-7,.6-8.1h3.1s-.6,12.4-.6,12.4l-17.9-2,.5-11.7h3.7Z"/>
      <path class="st2" d="M394.8,146.1c-.2-.1-2.5-4.2-3.2-4.6s-2.4.3-2.5.4c-1.1,1.4,8.2,7.4,2.8,9.3l-7.6-9.6c0-.8,11.3-9.6,12.6-10.3s.9-.8,1.8-.6,6.6,8.3,6.5,8.9-1.6,1.6-2.1,2.3c-3.8-4.6-4.1-8.8-9.6-2.8.6.9,4.2,4.6,4.3,5.1.2,1.1-1.9,2.6-3,2Z"/>
      <path class="st27" d="M380.5,112c.2-.1,3.3,1.5,3.1,2.7s-6.9,8.2-7.6,8.9c-6.3,5.4-15.9-2.3-11.5-9.3s7.6-8.9,8.4-9.1,2,1.6,2.7,2.1c-1.6,2.5-8.8,8.4-8.6,11.1s2.4,3.5,3.9,3.5,7.6-6.7,9-8.4.6-1.5.6-1.5Z"/>
      <path class="st33" d="M228.2,65.4c-1.4,0-7.2.4-7.8,1.2s.8,3.9.3,5c3.2.9,7.6-2.9,8.1,1.6s0,.7-.8,1c-2.1.8-4.6.4-6.6,1.5.7.5.3,2.2.9,2.2,1.3.1,7.7-1.9,8.4-1.3-.1.8.3,2.4,0,3s-11.2,2.1-11.8,1.7l-2.4-17.7c2.7.2,8.7-2.1,10.9-1.7s.9,2.6.9,3.6Z"/>
      <path class="st2" d="M440.8,226.4l1.2,12.4c-.7-.1-2.9.2-3.1,0-.3-.3-.5-7-.6-8.1-.3-.3-5.2.4-5.5.7-.8.9.5,5.7.4,6.5s-3.3,1.1-3.6.9c-.6-.6,1.6-8.5-3.1-6.8l.6,8.7h-3.1c.4-4-1.5-8.5-.6-12.2l17.4-2.2Z"/>
      <path class="st2" d="M271,61v3.7c-5.8,0-9.3-3.3-8.7,5,1.1.3,6.6.4,6.8.6s-.1,2.4,0,3.1c-2.3.7-8.1-2.2-7.4,1.5s10.6-1.5,8.4,4.1c-.5.7-1.1.6-1.8.6-1.4,0-9.9-.9-10.3-1.3l1.2-18,11.8.6Z"/>
      <path class="st67" d="M74,263.7l1.3,12.4-10.9,1.2h-7.5c.6-3.6-3.6-12.7,2.2-11.8l.6,8.1c1.5-.2,5.1.6,6-.6s-2.4-8.1,1.8-7.4c2,.3-.6,9.1,4,7.3.3-3.5-3.2-9.7,2.5-9.3Z"/>
      <path class="st27" d="M169.8,91.6c.4-.4,2.8,0,3.7,0-.2,8-10.4,11.5-15.9,5.6-4.6-5-3-12.9,3.4-15.2s7.4-1.6,6.6,1.6c-.8,3.2-4.7-.2-7.6,3-5,5.5,3.9,13.6,8.5,8.5,1-1.1,1.2-3.3,1.3-3.4Z"/>
      <path class="st80" d="M367.4,105.2c-4.9,1.2-3-4.1-6.8-5.3-9.6-3.1-11.6,14,0,10.9,2.4,5.9-5.9,4-8.6,1.5-12.6-11.7,13.6-26.3,15.5-7.1Z"/>
      <path class="st33" d="M424.2,213.8c2.1,1.8,3.2-.6.8,4.5-9.9-5-6.4-19.2,5-18,6.6.7,10.6,9.7,5.9,14.6-4.8-1.8.3-4.1-2.2-8.4-4.4-7.3-15.6,1.9-9.4,7.2Z"/>
      <path class="st80" d="M438.9,273.6c-2.8-3.7,3-4.7-1-7.4-2.7-.5-2.4,8.1-9.3,7.4s-5.3-10.9-.9-12.8,2,2,1.8,3c-.4,1.5-4.6,4.3-.2,6.1,2.6,0,3-7.3,8.1-7.4,6.7-.1,7.3,9.1,1.6,11.1Z"/>
      <path class="st80" d="M409.2,152.9c-.4-.6.2-2-.7-3.4s-2.2-.6-2.5-.2c-1.3,2.1,2.4,7.5-1.3,10.9-5.4,4.9-12.7-4.4-9.1-9.7,4.3,1.8,2.1,1.5,2.4,4s1.8,4.3,3.5,3.2c2.5-1.5-1.4-9,2.3-11.6,6-4.1,10.9,5.3,8.3,7.2s-2.8,0-3-.5Z"/>
      <path class="st64" d="M285.3,67.2c0,.1-2.9,1.4-3.1,1.3s-.1-1.4-1.4-2-2.2-.1-2.4.6c-.7,2.9,3.1,3.7,4.7,5.2,4.3,4.2,1.6,9.6-4.4,9.4s-9-6.1-3.7-6.2.5,1.3,1.2,1.9c1.3,1.1,4.5,2.1,4.7-.3.3-3.5-7-3.1-6.3-10,.7-7.1,12.8-2.8,10.6.3Z"/>
      <path class="st27" d="M422.7,168l-13,16.2c0-1.2-1.1-2.6-1.1-3.5s1.2-1.3.9-2.7-2.3-4.8-2.6-5c-1.3-1.1-3.3,0-4-3.4l1.5-.9,18.3-.6Z"/>
      <path class="st67" d="M83.3,197.2c.2,3.9-1.3,3.1-2.8,4.3s-2.2,5.4-2.2,6.6,1.2.8,1.3,1.3c.2,1.2-.7,2.7-.7,3.9l-15.5-12.4c.1-.9.9-1,1.6-1.2,5.8-1.2,12.4-1.1,18.3-2.5Z"/>
      <path class="st27" d="M110.1,120.1c.7-.6,15.5,4.7,17.1,5.5s1.7.5,1.5,1.6c-1.4,2.9-3.3,1.1-4.9,1.9s-4.2,4.1-4.3,4.5c-.3,1.5,1.3,2.9-1.7,4.5l-7.8-18Z"/>
      <path class="st13" d="M179.8,91c-.7,1.2.7,2.8-3.2,3.6l.6-19.9c1.9,1.3,14.3,12.4,14.3,13.4,0,2.4-5.3.4-5.7.4s-5.8,2.2-6,2.5Z"/>
      <path class="st2" d="M71.5,287.3c.9.9,7.2-3.5,6.2,3.1l-18,3.1-1.9-11.8c5.6-1.9,3.3,4,4.7,7.5l5.9-1.3c-.6-2-2.8-8.9,1.5-7.4s1.1,6.3,1.6,6.8Z"/>
      <path class="st27" d="M118.8,110.8c1.7,0,7.8-6.8,8.4-6.8,5.9,3.3-3.4,5.7-3.4,7.8s3.2,3.9,3.5,4c1.2.2,4.6-3.4,5.5-4.3,4.9,3.5-.7,4.3-2.8,7.2-.3,1.8,5.5,3.2,1.5,5.9-.7.4-.7.8-1.6.3s-8.3-9.3-9.3-10.6-2.3-2.8-1.9-3.4Z"/>
      <path class="st64" d="M300.2,67.3c.7,1.1,1,9.2,1.3,11.1,2.2-1.4,5.1-7.3,6.8-8.4s3.7.7,3.7,1.3l-13,15.2-2.5-20.5c.7.6,3.4,1,3.6,1.3Z"/>
      <path class="st27" d="M74.6,177.3c.4.5-2,4.4-1.2,5.5s10.9,3.3,12.4,4.7.7,3.9-2,3.3-10.9-4.9-12-4.8-1,6.3-5.3,3.6c1.6-2.6,3.2-10.5,4.7-12.4s2.2-.1,3.4,0Z"/>
      <path class="st27" d="M387.1,118.9c1-.2,2,1.6,2.7,2.1l-10.5,10,5.5,6.1c-.7.6-1.7,2.3-2.7,2.1s-6.9-7.7-7.9-9c2.9-1.3,10.7-11.1,12.8-11.5Z"/>
      <path class="st64" d="M352.5,89.6l-8.7,15.5c-1.5.1-4-.6-3.4-2.5,1.1-3.8,7.3-9.9,8.5-14.2l3.6,1.2Z"/>
      <path class="st51" d="M440.1,218.3c-.1.8.2,3.5,0,3.7-.6.6-15,1.8-17.1,3-1.3-.2-.9-3.1-.9-4.2l18-2.5Z"/>
      <path class="st25" d="M91.4,177.3c.1,1.6-.5,3.9-2.4,3.4s-13.7-6.4-14.3-6.9-.2-3.1,0-3.4c1.4-1.2,13.9,6.7,16.7,6.9Z"/>
      <path class="st5" d="M157.2,105.1c0,.1-2.7,1.6-3,1.3-.6-2.8-9.3-13.9-8.5-15.5s1.9-1.2,2.5-1.9c1,2.6,9.9,14.3,8.9,16.1Z"/>
      <path class="st2" d="M194,87.8c-.3-2.9-6-15.6-4.9-17.3s2.7-1.1,3.5.3,5.1,14.6,5,15.5-3.4,1.7-3.6,1.5Z"/>
      <path class="st19" d="M55.3,236.3c-.3.3-4.7-1.1-4.9-1.3-.5-.7.1-3.2,0-4.3.5-.6,6.6,3.8,5,5.6Z"/>
      <path class="st68" d="M327.6,69.1c.3,1.2-.5,1.2-1,1.7-7.1,7.2-6.6-4.3,1-1.7Z"/>
      <path class="st62" d="M54.6,270.6c.4.7,0,2.1,0,3-3.5-1.1-5.7-.4-5.6-5,.2-.2,5.3,1.7,5.5,2Z"/>
      <path class="st36" d="M279.8,281.1c.5,1.1.3,2.4-.6,3.9-1.6,1.6-1.8,3-.6,4.1,1.2-1.1,2.3-1.7,2.9.1h1.5c0-.1,1.3-1.4,1.3-1.4,5.3,0,10.5-.2,15.5-.6,0,0,.5.7,1.4.5,3.4-.6,5.9-2,9.5.2,2.8,1.7,2,5.9,2.2,6.1s2.5,0,4.1.6,5.7,5.2,7.7,6.9c.8.9.5,1.2-.6.6-1.8.4-3.9.2-6.2-.5-5.9.7-11.6,2.9-17.1,6.6-22.8-6.6-46.6-11.6-70-14.8l-.6.6v.5c-4.7-1.3-7.7-.9-9.3,1.3,1.7.2,1.6.7,0,1.2.7.8.3,1.2-1.2,1.2-2.3,5.4-3.4,8-3.4,8,4.7-3.7,10.5-4.9,16.4-5,24,2.6,48.1,5.6,72.4,8.8,3.4-4.4,9.6-9.1,15.5-7.1,3.2,2.2,6.4,3.9,9.8,3.9-.8-.9-.5-1.2.6-.6.8.8,1.3,1.8,2.2,2.5.5.2.2-1.2.6-1.3,3.7-.8,1.7,7.5,2.1,9.6s1.6.1,1.8.4.2,4.2,0,4.3c-.3.2-2.4-.4-3,0s-1.8,6.7-5.7,5.5l1.2-1.9-3.1.6c3.4-9.4-3.9-28-14.3-16.2l4.4.6-.2.8c-1.6-.1-4,0-2.9,1,.4,1.1-.4,2.1-2.3,3.1-3,7.1-6.5,24.3,6.3,22.2l1,.9c1.2-.5,1.7,0,1.2,1.2,3.4,2.8,11.9,1.1,14.9,5.3,0,2.7-18,4.9-20.8,5.3-17.3,2-34.6,2.1-51.9,2.5-14.9.1-30,.1-45.4,0-18.3,0-38.7-.7-56.8-3.2s-14.4-2.3-15.3-3.7c-1.9-2.8,8.2-4.8,9.9-4.3-1.3-3-3.8-5.3-4.7-8.7s-.4-2.8-.3-4.4c-1.6.3-11.7-.4-11.9-1.6,1-6.5.3-7.9,7.5-6.5-.7-1.3-3.8-.4-4.3-2.3s1-9.6,1.4-10.9c1.5-5.2,5-7.2,8.3-10.6s.4-1.4.8-2c3-3.8,16.1-3.6,20.8-3.4s5.9,1.4,8,1.2,5.1-2.1,7.3-2.7c6.3-1.5,16-2.2,22.6-2.3,3.7,0,8.6,1.3,11.9.7s1.4-1.3,2.2-1.9l.8-.6c1.5-3.9,4.9-3.7,2.9.6q1.5,0,.6,1.2l2-.4c2.8,1.7,7.6,1.2,11.1.4,1.1.8,2.3,1.2,3.6,1.2-1.3-2.1,1.6-4.1,3.7-3.5l5,1h1.4c4.2-4.3,9.4-4.9,14.2-.9,1-2.3,2.2-3.5,3.6-3.5-1.2-5,3.7-6.9,6.7-3.9.8.8.6,2.2-.5,2.6Z"/>
      <path class="st46" d="M236.9,215.9c18.2-12,37.6-22.3,58.5-28.8,4.9-1.5,34.5-9.5,37.1-7.8s.4,2.1.8,2.3c1.5,1,10.7-2.7,13.3-3,6.4-.7,7.6,0,6,6.7-2,8.1-15.3,20.4-21,26.8s-5.6,8-7.4,9.4-21.3,6.4-26,8.2c-13.1,5.1-26.2,12.1-37.7,20.1-2.4,1.7-14.3,12-15.3,12.1-4.4.1,3.3-17.1,3.4-18.3.5-5.6-2.8-16.1-6.2-20.5s-6.5-5.4-5.5-7.1Z"/>
      <path class="st28" d="M282.2,126.3c-37,11.9-66.8,27.5-97.3,51.6-2.3,1.8-7.6,7.4-9.7,8.4s-5.5-4.7-6.5-6.5-3.4-6.7-3.4-9c-.2-4.8,3.6-7.5,4.2-11.3,1.3-7.3-2.5-10.6,2.4-18.8s13.8-8.4,18.9-14,3.8-8.3,8.5-11.4,9.2-1.8,14.1-2.7c9.4-1.6,17.5-5.5,27.4-4.3,9.2,1.1,1.3,6.7,2.9,9.2,5.9,1.6,12.1,5.8,17.7,7.5s3.5-.4,5.8-3.4c2.4-3.1,6.2-2.4,9.3-.9,7.3,1.7,9.1,3.6,5.6,5.6Z"/>
      <path class="st44" d="M249.9,272.4c1.8-3.4,6.3-6.5,9.4-9,18-14,39-24.2,61.1-30.1,3.7.7,4,18.2,3,21.4-1,3-12.9,7.7-15.3,11.5-2.3,3.6.7,7.6-.6,11.8s-7,6-7.8,9.3c-.3,0-.5,1.1-1.5,1.3-4.4.6-10.6.4-15.2.6-1.4.4-2.3.1-2.7-.6,2.2-6.3,3.3-11.2-5.1-11.1-7.9-2.4-16.2-3.4-24.4-3.9l-.7-1.2Z"/>
      <path class="st79" d="M347.3,247.6c3.5-1,2.9,3.7,2.7,5.8-.6,5.3-9.3,24.9-13.1,28.6s-6.7.9-7.7-2.9c-1.7-6.7,1.7-7.8,2.5-12.8s-.3-4.7.6-6.8,8-4.9,10.4-7,3.3-4.5,4.5-4.9Z"/>
      <path class="st29" d="M275.4,140l.5,1.5c-32,12.8-62,27.6-88.1,50.4-4.5,3.9.7,5,4.5,4.7l28-5,3.8,1c4.8,2.8,10,5,15.4,6.5,14.9-9.5,32.2-16.6,49-23,3.8-1.8,7.3-2.2,10.5-1.2l-1.2,1.2-21.8,7.5c-6.6,2.8-13.1,5.5-19.5,8.8-2.8,1.5-16.1,9.8-17.5,9.9s-2.3-1.6-3.8-2.3-3.8-.6-5.6-1.3c-5.1-1.9-5.4-5.3-12.2-4.3s-16.4,4.1-24.4,4.8-10.9-.7-10.9-4.7,6.4-6.5,7.8-7.8c8.4-7.1,18.1-12.7,26.4-19.3,1.4-1.2,2.8-2,4.4-2.5,2.6-1.7,5.3-3.5,8.1-5,13.6-7.7,29.3-15.4,44.3-19.9.7-.2,1.5-.1,2.3,0Z"/>
      <path class="st32" d="M249.9,272.4c4.7-.2,16.3,1.6,21.3,2.7s7.6,2.9,11.7,2.9c.1,3.4-1,6.6-1.6,9.9s0,1.2,1.6,1.3c-1.9,0-1.4.6-4.4,0l-.5-1.2c1.4-2.6,1.9-4.9,1.7-6.9-.2-1.7-.8-3.2-2.7-3.1-3.1.2-2.4,2.4-3.5,4.4l-1.2-.9c.2-1.9-.7-2.1-2.4-2.5-5.8-1.2-13.4-2.3-18.2-2.2l-1.4.3-6,9.7c.8.7,1.2,1.5,1.1,2.4-.2.2-.4.7-.9.6-4.2-1.5-12.7.8-15.9-1.8.9-2,2.2-3.4,3.7-4.4.8-.8.9-.5.6.6,1.1.5,1,1.4.7,2.4.1.3,5.4.3,5.9,0s5.9-8.8,5.5-9.1-9,1.4-10.3,2.1-.3-.1-.5-.4c-1.7,2.5-3.5,5-5.2,7.7l-1-.2c-.4-.9.2-1.8-.9-2.5-.9.5-1.2,1.8-1.7,2.3s-1,0-1.1.2c1.6-3,3.5-7,6.4-8.8s16-5.3,19.1-5.5Z"/>
      <path class="st21" d="M276,183.5c7.5-3.1,15.1-6.4,23-8.7l1.3-1.2c6.6-2,13.3-3.8,19.9-5.6-4-4.8-7.2-10.2-9.5-16-4.2-5.9-8.2-11.8-12-17.7-7.3,2.1-14.6,4.2-21.9,6.1l-1.5-.4c-15.8,5.2-31.9,11.8-46.6,19.9,1.2-1.8,4.1-3.2,6.1-4.2,19-9.3,39.1-18,59.7-23,7.9-1.9,5.8.5,9.2,5.4s5.8,7,8,10.6,5.2,11,8.5,15.7,4,1.7,3,4.9l-47.2,14.1Z"/>
      <path class="st14" d="M317.1,310.9c10.6,1.2,11.7,24.2,3.1,29.2-.4-.4-.8-.8-1.2-1.2l-.5-1.3c6-5.1,6.1-23.3-3.5-23.8l-.9-1.1c-1.8.8-1-1.4-.5-1.8s2.9-.2,3.6-.1Z"/>
      <path class="st74" d="M262.4,353.2c-13.8.3-28.1,1.3-42,.6s-2.3-.3-3.4-.6c13.8,0,28-.8,42-.6,1.1,0,2.8-.4,3.4.6Z"/>
      <path class="st12" d="M276.6,120.7c1.7.2,11.2,2.5,11.8,3.1,1,1-.2,1-.9,1.2-1.6.5-3.8.7-5.3,1.2,3.2-4.1-3.4-3.4-5.6-5.6Z"/>
      <path class="st42" d="M330.7,306.6l-.6.6c-2.1.2-6.3-2.8-6.2-5l.6-.6c2.3,1.9,3.9,2.6,6.2,5Z"/>
      <path class="st24" d="M220.7,164.8c-1.4.9-2.4,2.4-4.4,2.5,1.2-1,1.6-3.2,4.4-2.5Z"/>
      <polygon class="st39" points="298.4 435.9 291.6 435.9 295 426.6 298.4 435.9"/>
      <polygon class="st49" points="241.8 435.9 235 435.9 238.1 426.6 241.8 435.9"/>
      <path class="st37" d="M88.1,156.3c9.8-1.1,9,13.9-.1,11-6.2-2-5.4-10.4.1-11Z"/>
      <path class="st15" d="M243.7,75.3v-11.2c9.9-1.1,10.2,12.7,0,11.2Z"/>
      <path class="st22" d="M70.9,257.5h-10.9c-1.7,0-.9-6.5,2.6-7.3,5.7-1.3,9.1,1.4,8.2,7.3Z"/>
      <path class="st16" d="M69,222l-6.8-.6c-.9-7.4,8.5-6.8,6.8.6Z"/>
      <path class="st0" d="M139.1,99.7c4-.8,6.3,5.5,1.6,7.3-1,.2-7.5-6.1-1.6-7.3Z"/>
      <path class="st41" d="M412.8,176c-1.2,1-2.7-4.1-2.5-4.3l5.6-.6-3.1,5Z"/>
      <path class="st60" d="M75.9,205.9l-5.6-3.7c2.1,0,4.3.4,6.2-.6l-.6,4.4Z"/>
      <path class="st78" d="M120.6,126.9c-2.2,5.6-4,2.3-5-1.9l5,1.9Z"/>
      <path class="st53" d="M180.9,81.5c.3.3,1.7,3.6,3.1,4,0,.7-4,1.9-4.3,1.6,0-1-.6-7.2,1.2-5.6Z"/>
      <path class="st10" d="M323.9,302.2c1.2.6,5.5,4,6.2,5s1.5,3,1.7,4.2.7,2.8-.5,2.6c0-1.4-.8-5.3-1.9-5.9s-3.1,0-4.5-.4-3.7-3.2-6.4-3.6c-4.2-.6-8.1,2.4-11.1,4.9-1.1.9-1.1,2.8-3.1,2.5-20.1-2-40.4-6.1-60.4-8.1-10.9-1.1-22.1-2.3-30.1,6.8.5-2.8,2-8.6,3.7-10.8s1.3-.7,1.9-1.1l1.5-.5c11.1,1.4,22,3,32.7,4.9,3.8,1.2,4.8,1,3.1-.6-11.8-.5-24-2.3-35.7-4.2s-.2-.3-.3-.8c0-.4,0-.9,0-1.2.1-.9.7-1.4,1.5-1.7,3.1-1.1,25,3.3,29.6,4.3s.4.2.6.5c6.7.6,13.5,1.9,19.9,3.7,1.6,0,2-.3,1.2-.6-6.9-.5-13.8-1.9-20.5-3.7-7.7-.9-15.6-2.1-23-4.4-.4,0-2.7-.6-2.5-1.2,6.9-.3,13.8.9,20.6,2.1,17.7,3,35.1,7.8,52.4,12.2,7.9-4.2,14-9.5,23.3-4.9Z"/>
      <path class="st40" d="M223.8,312.8c3.3-4.6,9-1.8,12.3,1.9s4.5,8.2,5,12.9.5,8.1-1.8,10c-2,7.5-10.2,14.4-17.4,8.4-8.1-6.7-7.8-28.2,1.9-33.3Z"/>
      <path class="st11" d="M318.9,338.9c-4,2.3-10.1-1.1-11.1-5.4s.5-16.1,2.9-18.6,3-2.1,3.2-2.1c9.6-2.3,11.9,15.2,8.1,22.1-.3.6-2.8,3.8-3.1,4Z"/>
      <path class="st26" d="M221.9,309.1c2.7-5.5,10.7-6.6,15.8-3.6,10.4,6,8.1,21,7.9,31,1,1,7.3-1.8,8.1.6-3.9,0-7.9,0-11.8,0l-1-1.2c1.6-10.4-1.8-27.7-15.5-25.6-.9-.7-2-1.1-3.4-1.2Z"/>
      <path class="st66" d="M273.5,282.3c-.5.8-2.7,4.9-3.4,4.9-1.9,0-4.2-5.1-10.7-1.9s-3.6,4.2-5.2,1.4c-2.8-.2-4-8.1-2.5-9.9-.4-1.8,1-1.3,2.1-1.2,3.1.3,17.7,1.6,19,3.4s.6,2.3.6,3.5Z"/>
      <path class="st70" d="M300.2,332.2c.4.2,2.2,5.8,3.2,6.7l-39.2-1.2c-.7-.7,2.3-3.1,2.8-3.1l33.2-2.4Z"/>
      <path class="st6" d="M169.1,312.8c.9-5.9,3.2-16,9.9-17.8s1.1,11.8,0,14.9-1.7,6.2-2.5,9c-1.1.1-.6-1.3-.5-2,.5-3.1,1.9-8,3-11,1.3-3.4,1.1-3.6-.6-.6-2.1,4.8-4.1,10.9-4.4,16.2l-1.2-1.9c-.3-.3-.6-.6-.6-.9-.2-4.4,1.3,0-1.2,2.7-.4-.2-1.2.4-1.3-.3-.1-2,1.8-10.3,2.5-12.7,1.5-4.6,1.3-5-.6-1.2-.8,2.3-1.3,4.5-1.9,6.8-.5.4-.7,0-.6-1.2Z"/>
      <path class="st76" d="M241.8,337.1c-.9,0-1.5-1.7-2.5.6.6-2.4.8-8.3.6-10.8-.8-7.6-7.2-18.8-16.1-14.1-.3-1.6,1.6-.8,1.2-2.2-.9-1.3-2.4-1-3.7-.9-.1-.7.6-.6.6-.6,4.5.3,8.5-1,12.4,1.6,7.3,4.9,9.2,18.3,7.5,26.4Z"/>
      <path class="st31" d="M186.1,309.5c-3.9-3.2-.3-14.7,5.1-9.8s0,13.9-5.1,9.8Z"/>
      <path class="st30" d="M245.6,289.2l-3.1-1.5,7.5-12.1c.7-.6,1.7.8,1.9,1.2,1,3,.6,6.6,2.5,9.9.2,2.1-.6,1-1.7.8s-4.2-.8-4.7-.7c-.9.2-1.4,1.8-2.2,2.4Z"/>
      <path class="st75" d="M180.3,327.7h9.6c.9,0,6.4,1.1,5.9,3.1l-15.5-1.2c-.5,1.6,1.8,1.7,1.9,1.9.8,1.3-3.1,1.2-4.1-.6s.2-14.3,1.1-16.3.9-1.5,1.7-1.7l-.6,14.9Z"/>
      <path class="st8" d="M154,298.6c6-1.3,5.8,9.8,1.7,10.5-6,1-6.2-9.5-1.7-10.5Z"/>
      <path class="st23" d="M256.8,302.2c.5,1.2-2.1.9-3.1.6-1.1-.1-2.3.2-3.4,0l-30.8-4.3c.4-.3.8-.9,1.2-1.2l36.1,5Z"/>
      <path class="st17" d="M154.2,313.4v17.1c0,1.2-3.1,1.2-3.1,0v-14.9c0-1.8,1.3-2.7,3.1-2.2Z"/>
      <path class="st57" d="M230,294.2c7.6,1.6,15.4,2.9,23,4.4.5.4.3.6-.6.6-5.9-1-24.3-4.8-28.9-4.4s-1.9.6-2.8,1.3c-.8-4.6,6.9-1.5,9.3-1.9Z"/>
      <path class="st3" d="M172.8,319.7c-.2.7-1,1.4-.6,2.5-.1.2-.9-.5-1.2-.6.7-7.5,4-14.3,6.8-21.1,1.2-.1.5,1.3.3,1.9-1.1,3.4-2.6,6.7-3.6,10.1s-1,4.9-1.7,7.3Z"/>
      <path class="st71" d="M287.2,299.1c1.5-.3,10.8-.2,11.2-.6s-.2-3.5,0-4.4c.7-.8,3.6,3.2,3.7,4-3.1-.5-2.3,2.1-2.8,2.2-2.6.5-8.9-.5-12.1-.7-.5-.2-.5-.4,0-.6Z"/>
      <path class="st56" d="M278.5,289.2c-1-.2-2.7.7-2.5-.9s3.4-4.8,3.7-7.2l1.2-.6c.2.4-1.1,8.2-2.5,8.7Z"/>
      <path class="st63" d="M195.8,337.1c1,.8,0,1.1-.9,1.2-4.4.6-10.1,0-14.6.6,1.7-3.5,5.6-1.2,8.4-1.2,2.5,0,4.7-.8,7.2-.7Z"/>
      <path class="st55" d="M169.7,292.9l-7.3,3c-2.4,1.9-3.1,2-5.8.7l4.5-2,8.6-1.7Z"/>
      <path class="st77" d="M165.4,336.4c-2-1.4-2.8-2.7-3.7-5,3.4.1,3.9,4.4,8.1,3.1.4,1.9-.7,1-1.9,1.2-.6,1.2-1.4,1.4-2.5.6Z"/>
      <path class="st26" d="M228.2,286.7c2.1-1.7,3.9-6.7,6-8.1,3-2,9.8-1.4,13.2-3.1.5.7-6.2,12-7.2,12.3-2,.7-6-.3-8.3,0,.7-1.1.8-2.5,1.2-3.7.8-3,.6-3.2-.6-.6-1,1.9-1.4,3.7-3.7,4.4-.6-.5-.4-.8-.6-1.2Z"/>
      <path class="st47" d="M282.9,298.5c-3-.2-4.9-.3-7.9-1.2s-1.4-.8,0-.7c4.8.3,9.6,2,14.6,1.3,0,1.1-2.3.6-3.1.6-.8,1-2.9,1.1-3.7,0Z"/>
      <path class="st34" d="M212.6,330.2c1,.8,0,1.1-.9,1.2-2,.2-7.2.6-8.4-1.2h9.3Z"/>
      <path class="st59" d="M167.9,335.8c-1.9,3,3.6,0,4,0s1.1,1,1,1.2c-.4.5-4.9.8-5.9.6s-1.2-1-1.5-1.2c.7-.6,1.6-.5,2.5-.6Z"/>
      <path class="st50" d="M172.2,308.5l-.6-1.2,3.7-7.5c-.3,3-2.3,5.9-3.1,8.7Z"/>
      <path class="st72" d="M200.8,296.7l-6.2,1.6-2.5-.4c.3-.8,3.3-1.1,4.1-1.2,1.5-.1,3.1-.1,4.6,0Z"/>
      <path class="st69" d="M179.1,306l-.6-.6c.7-1.6,1.6-4,3.1-5-.2,2-1.9,3.9-2.5,5.6Z"/>
      <path class="st9" d="M286.6,298.5l.6.6v.6c-1.8,0-4.9.8-4.4-1.2,1.2,0,2.5,0,3.7,0Z"/>
      <path class="st61" d="M169.7,314.1c-.3,1-.3,3.4-1.2,3.7-.6-1.9.4-3.6.6-5l.6,1.2Z"/>
      <path class="st7" d="M275.4,140c7.8-2.6,15.7-5.4,23.8-6.8,3.3,5.9,8.8,11.5,12.1,17.1,1.5,2.6,2.4,5.7,4,8.5s5,6.8,7.3,10.4c-7.9,1.8-15.9,3.3-23.6,5.6-10.2,1.4-20.2,6.4-29.7,10.4s-13.2,5.6-20,9.2-7.9,5.7-9.8,5.9-5.9-2.7-8.5-2.6c-3.7-1.3-6.7-4.6-10.7-4.8l-28,5c-2.9,0-7.5.2-7.6-3.5s4.2-4.6,6-6.2c25.1-21.9,51.6-34.4,82.3-46.4.9-.4,1.9-.7,2.3-1.7Z"/>
      <path class="st4" d="M232.5,283.6c.2-.3,1.2-5.1,2.5-3.7s-1.6,3.7-1.9,4.3l-.6-.6Z"/>
      <path class="st48" d="M256.8,302.2l23,3.7c-8.4-.6-16.8-1.5-25.2-2.5-1-.1-.9-.6-.9-.6l3.1-.6Z"/>
      <path class="st18" d="M273.5,302.2c.4.4,0,.7-1.2.6-6.6-1.2-13.3-2.6-19.9-3.7l.6-.6c6.8,1.3,13.7,2.5,20.5,3.7Z"/>
      <path class="st65" d="M273.5,302.2l17.4,3.7c-6.4,0-12.5-2-18.6-3.1l1.2-.6Z"/>
      <path class="st73" d="M223.2,342c14.9,4.6,15.3-26.3,0-23,.4-.9,2.8-2.2,3.5-2.3,11.7-2.7,13.9,16.9,8.9,24.4-3.1,4.6-9.1,5.9-12.4.9Z"/>
      <path class="st1" d="M226.4,324.8c5.5-3.1,6.4,12,2,12.3-5,.4-4.6-10.9-2-12.3Z"/>
      <path class="st20" d="M312.1,335.2c10.8,2.5,10.7-19.7,0-16.8,5.7-6.9,11.2,2.4,11.2,8.4s-5.4,14.4-11.2,8.4Z"/>
      <path class="st58" d="M315,322.2c3.6-1,3.7,9.3.5,9.3s-3.7-8.5-.5-9.3Z"/>
    </g>
  </g>
</svg>