<?xml version="1.0" encoding="UTF-8"?>
<svg id="Layer_1" xmlns="http://www.w3.org/2000/svg" version="1.1" viewBox="0 0 500 500">
  <!-- Generator: Adobe Illustrator 29.2.1, SVG Export Plug-In . SVG Version: 2.1.0 Build 116)  -->
  <defs>
    <style>
      .st0 {
        fill: #b5a38f;
      }

      .st1 {
        fill: #ea9694;
      }

      .st2 {
        fill: #010101;
      }

      .st3 {
        fill: #8b191b;
      }

      .st4 {
        fill: #999595;
      }

      .st5 {
        font-family: FranklinGotItcTEE-Demi, FranklinGotItcTEEDem;
        font-size: 29.8px;
        font-weight: 300;
        letter-spacing: 0em;
      }

      .st5, .st6 {
        fill: #e01f26;
      }

      .st7 {
        fill: #fff;
      }

      .st8 {
        fill: #2d2b29;
      }

      .st9 {
        font-family: FranklinGotItcTEE-Medi, FranklinGotItcTEEMed;
        font-size: 18.4px;
        letter-spacing: 0em;
      }

      .st9, .st10 {
        fill: #158a44;
      }

      .st11 {
        fill: #d0c2a1;
      }

      .st12 {
        fill: #391313;
      }
    </style>
  </defs>
  <path class="st6" d="M231.8,141.1c5.2-.7,5.7,1.7,9.7,4,1,.6,2.5.3,3.2,1.1-.3.8-.4.9-1.1,1.5-4.6,1.6-10.8-9.6-14.1.6.7,5.3,5.8,5.4,5.5,7.9-.7.3-2,.2-2.7,0-7.3-2.8-7.4-11.8-.4-15Z"/>
  <path class="st6" d="M266.6,141.1c.6,0,1.1-.1,1.7-.1,4.3-.2,7.2,3.3,7.2,7.5,0,4.4-3.2,7.9-7.6,8.1-.5,0-.4-.1-.7-.4.2-1.5,3.1-2.8,4.8-4.7.8-2.3.9-5.9-1.7-7.2-3.9-2.1-7.6,5.5-11.6,3.3-.6-.3-.8-.7-.8-1.3.8-.8,2.6-.7,3.4-1.2,2-1.4,3.2-2.8,5.5-3.9Z"/>
  <path class="st6" d="M255.7,137.5c.9.2,1.2.2,1.8.8.4,1.1,0,1.7,0,3.1,1.5.8,2.5-1.5,4.2-1.6l.5.4c.3,1,.2,1.4.1,2.5-5.3,3.9-10-1.1-6.6-5.2Z"/>
  <path class="st6" d="M244.6,137.8c2.5,0,4,1.2,2.9,3.8-.5,1.1-1.4,2-2.5,2.4-1.5.6-2.7,0-4-.5-1.1-1-1.6-2.8-.3-3.7,1.7.2,2.8,2.3,4.3,1.6.3-1.3-.5-2-.3-3.5Z"/>
  <path class="st6" d="M249.6,134c.8-1.1.7-2.2,1.4-2.8.9.5.9,2,1.7,2.3.6.3,1.3.2,2.1.6-.4.7-1.2,1.3-1.9,1.8.4.8.8,1.5.4,2.3-.9,0-1.5-.6-2.2-1.2-.9.8-2,1.5-3,2.2.3-1,.8-2.3,1.1-3.3l-.2-.2c-.6-.6-1.4-1.2-1.4-2.1.9-.2.8,0,1.9.3Z"/>
  <path class="st6" d="M250.9,139.1c1.2-.1,2.3.8,2.5,2,.2,1.2-.7,2.4-1.9,2.6-.8.1-1.7-.2-2.2-.9-.5-.7-.6-1.6-.3-2.3s1.1-1.3,1.9-1.4Z"/>
  <path class="st6" d="M256,148.1c1.1,0,1.6,0,2.1,1-.3,1.4-1.4,2.5-2.4,3.5h-1.5c-.7-.6-.4-.3-.7-1.1.3-1.4,1.4-2.5,2.5-3.4Z"/>
  <path class="st6" d="M244.4,148.1c2.6.2,4.8,1.9,3.8,4.6-.8,0-.9,0-1.6-.3-1.3-1.2-3.1-2.6-2.2-4.4Z"/>
  <path class="st6" d="M250.8,145.4c3.2.9,1.7,3.5.4,5.2-.5-.5-1.5-1.9-1.9-2.6.4-.8,1-1.8,1.5-2.6Z"/>
  <path class="st6" d="M259.9,150.3c1.2,0,1.9-.4,2.4.7-.3,1.1-1,1.6-1.8,2.5-.7.1-.9,0-1.6-.1-1.1-1.2,0-2.2,1-3Z"/>
  <path class="st6" d="M239.8,150.2c2.7-.2,3.7.3,4,3.1-2.7.5-3.2-.5-4-3.1Z"/>
  <path class="st6" d="M236.3,152c.2,0,.4,0,.5,0,1.1.2,1.6.4,2.3,1.3.1,1.1.1.7-.3,1.7h-1.2c-1.4-.5-1.6-1.6-1.3-3Z"/>
  <path class="st6" d="M264,152.3c.9-.1,1.6-.3,2.1.5,0,1-.6,1.6-1.2,2.5-1.1-.2-1.5-.3-2-1.3.3-1.1.2-.8,1.1-1.8Z"/>
  <path class="st6" d="M213.8,188.1c.4-4.7,2.1-9.5,4.4-13.5,4.8-8.4,12.7-14.6,22.1-17.1,19-5.2,38.6,5.1,44.7,24.1.6,1.8,1,3.7,1.5,5.5,58.3.7,116.4,7.1,173.5,19.1v17.6c-.8,1.5-3.4,24.6-3.9,28.1l-8,59.4c-10.3,2.4-23,4.5-33.6,6.6l-69.8,13.7-21.6,4.3c-4.3.8-9.4,1.6-13.6,2.8,0-1.8,0-3.7,0-5.5,10.1-2.2,21.1-4.1,31.3-6.1l67-13.2c11.7-2.3,24-4.5,35.6-6.9,1.5-9.6,2.7-20.2,4-29.9l9.2-66.5c-2.9-.3-5.9-1.1-8.7-1.7-4.4-.9-8.8-1.8-13.2-2.6-16.3-2.9-32.6-5.4-49-7.4-15.7-1.9-31.4-3.2-47.2-4.5-2.7-.2-5.3-.4-8-.5l-30-1.2c-4.2-.2-9.3-.2-13.4-.5l-.3,4.7c-.3,1.5-.5,3-.9,4.4-3.5,10.8-8.5,18.4-19,23.7-8.8,4.5-19.1,5.2-28.5,1.9-9.2-3.2-16.7-9.8-21-18.5-1-2-1.9-4.4-2.5-6.6l-.7-4.5-.2-4.1c-23.7.7-47.4,2.3-71,4.7-10.8,1-23.1,2.1-33.9,3.5-12.5,1.5-25.1,3.3-37.5,5.1-4.6.7-9.2,1.5-13.9,2.2-3.9.6-8.1,1.7-12.1,1.9,4.1,28,7.9,56.1,11.6,84.2.6,4.1.9,8.2,1.5,12.3,33.8,6.5,67.7,14.3,101.4,21,9.9,2,20.8,4.7,30.6,6.4,0,1.8,0,3.6.3,5.3-16.4-3.2-33-6.9-49.4-10.3l-87.4-18.2c-1-5-1.4-9.9-2-14.9l-2.3-16.7-6.4-46.3c-.7-5.2-1.1-10.6-2-15.8-.3-1.5-.5-4.5-1-5.8v-5.5c10.1-1.5,20.3-3.5,30.6-5.1,31.6-4.7,63.5-8.3,95.4-10.7,15.7-1.2,32.1-2.4,47.9-2.6Z"/>
  <path class="st10" d="M286.5,196.8c38.5,1,77,4.1,115.2,9.3,14,2,27.9,4.3,41.7,7.3,2.5.5,5.1,1.3,7.7,1.7-1.9,10.7-3.4,23.3-4.9,34.3l-4,27.6c-1,7.9-2.3,15.7-3.2,23.6-.1,1.1-.2,2.1-.5,3.2-8.5,2-17.3,3.7-25.8,5.4l-46.6,9.5-37.3,7.7c-6.1,1.2-13.9,3.1-19.9,3.9-.4-1.4-.8-2.9-1.4-4.3l126.7-25.8,7.1-49.8c1.4-10.2,2.7-21.9,4.5-31.9-14.1-2.7-27.9-5.3-42.1-7.4-29.4-4.2-58.9-6.9-88.6-8.3-9.6-.5-20.1-1.3-29.6-1.4.4-1.5.6-2.9.9-4.4Z"/>
  <path class="st10" d="M213.8,197.3l.7,4.5c-53.6,2-107,7.6-159.9,16.7,1.3,6.8,2.1,15.3,3.1,22.2l6.1,42.6c.9,5.9,1.3,10.8,2.5,16.8,1.8.5,4.1.8,6,1.2l13.6,2.9,44.6,9.6,42.2,9.1c5.8,1.3,13.4,3.1,19.1,4.1-.6,1.8-.9,2.5-1.2,4.4-5.3-1.3-11.8-2.6-17.3-3.7l-34.7-7.4c-25.3-5.4-51.3-11.4-76.7-16.5-.4-4.8-1.3-9.2-1.9-13.9l-8.1-58.6c-.7-5.8-1.7-10.4-2.2-16.3,2.8-.2,5.8-1.1,8.5-1.5,5-.6,9.9-1.7,14.9-2.5,18-2.7,36.1-5.2,54.2-7.2,18.9-2,37.8-3.6,56.8-4.9,9.2-.5,21-.6,29.8-1.5Z"/>
  <path class="st2" d="M210.9,303.6c21.1-10.5,45.5-12.1,67.8-4.4,4.2,1.4,6.6,2.7,10.4,4.4,1.5,4.5,4.4,10.3,5.5,14.4,5.3,2.6,8.7,4.4,10.8,10.5,2.1,5.9.3,14.4-1.5,20.4,1.9,1.1,2.4,1,2.7,3.2v.4c0,1.2-.1,2.5-.1,3.7-1.7.3-2.6.3-4.4.4,0,1.2,0,3.1,0,4.3,0,1.8,0,5.1-1.3,6.2-2.9,2.4-10.6,2.9-11.1-2-.3-1.3-.2-5.9-.2-7.5-25.8.5-51.5.4-77.3-.3,0,1.3.1,4.6-.2,5.8-.3,5.8-4.8,4.8-9.2,4.5-4.3-2.5-3.4-6.3-3.3-10.6-1.7-.3-4.5-.5-6.3-.7,0-1.5,0-3.3-.1-4.8.5-1.3,1.4-1.6,2.6-2.3-1.5-8.2-4.3-16.9.8-24.6,2.1-3.2,5.3-4.8,8.6-6.4,2-4.7,3.8-10,5.9-14.4Z"/>
  <path class="st11" d="M193.1,351.3c4.7,0,9.7-.1,14.5-.1h59.4c9,.2,18,.4,27.1.8,3.9.2,8.9.5,12.7.5,0,1.2-.2,2.5-.2,3.7-1.7.3-2.6.3-4.4.4,0,1.2,0,3.1,0,4.3,0,1.8,0,5.1-1.3,6.2-2.9,2.4-10.6,2.9-11.1-2-.3-1.3-.2-5.9-.2-7.5-25.8.5-51.5.4-77.3-.3,0,1.3.1,4.6-.2,5.8-.3,5.8-4.8,4.8-9.2,4.5-4.3-2.5-3.4-6.3-3.3-10.6-1.7-.3-4.5-.5-6.3-.7,0-1.5,0-3.3-.1-4.8Z"/>
  <path class="st2" d="M297.5,357.5c.8-.6,3.1-.5,4.1-.3.5.8.2,2.4.4,3.6,0,1.8,0,5.1-1.3,6.2-2.9,2.4-10.6,2.9-11.1-2,.2-2.5-.4-5.2.4-7.3.8-.6.6-.4,1.8-.3h.6c0-.1,3.8,0,3.9,0l.7.3.5-.2Z"/>
  <path class="st4" d="M296.3,357.4l.7.3.5-.2c-.2,1.4-.4,2.9-.5,4.3l-.4.2h.3c0,.4,0,.2-.3.4-.4-1.6-.3-3.4-.4-5Z"/>
  <path class="st8" d="M291.8,357.5h.6c0,.8,0,1.6-.3,2.4-.4-.6-.3-1.6-.3-2.4Z"/>
  <path class="st2" d="M199.5,356.8l3.7.2h.9c0,0,1.4,0,1.4,0h.9c1.3.1,4.2.2,5.1.6.9,1.4.3,3.7.6,5.4-.3,5.8-4.8,4.8-9.2,4.5-4.3-2.5-3.4-6.3-3.3-10.6Z"/>
  <path class="st4" d="M203.1,357h.9c0,1.4-.2,3-.4,4.5-.4-1.9-.5-2.6-.6-4.5Z"/>
  <path class="st4" d="M205.5,357h.9c0,1.1-.2,2.3-.3,3.4l-.5.2v-3.6Z"/>
  <path class="st8" d="M205.5,360.6l.5-.2c0,.7.1,2.2-.3,2.8-.4-.8-.3-1.6-.3-2.6Z"/>
  <path class="st11" d="M250.5,317.8c3.4,1,6.3,2,9.8,2.9,1.7,2.1,2.8,4.2,4.1,6.5,5.5,1.7,12.9,2.5,17.8,4.5,4.7,1.9,6.6,8.1,13,9.4,2.6.5,3.9.8,6.3,1.7-.2.6-.2.7-.7,1.1-2.9.3-8.3-1.5-11.4-1.9-8.4-1-16.7-2.3-25.2-2.7-2.7-.1-5.4-.1-8.1-.4-1.5,3.1-2.3,3.4-5.5,4.3-3-.7-4.1-1.3-5.3-4.2-11.9,0-23.8,1.4-35.5,3-2,.3-8.5,2.1-9.8,1.2v-.5c1.6-1.7,7.5-2.1,9.3-3.2,3.4-2.1,6.3-6.1,9.8-8.3l.7-.3c4.5-1.2,11.6-2.3,16.7-3.5,1.8-2.3,2.7-4.4,4.3-6.5,3.1-1.1,6.4-1.9,9.7-3Z"/>
  <path class="st2" d="M250.5,320.7c.8,0,6.9,2.1,8,2.6,1.3,1.6,3,4.6,4.4,6.5,6,1.7,13.5,2.1,18.9,5,1.3.7,3.9,3.4,5,4.5-10-2.5-20.5-3-30.7-3.6l-.4-.6c-1.2-2-1.9-2.9-4.3-3.3-3.5,0-4.7.3-6.1,3.7-10.8,1.1-20.6.8-31.2,3.6,5.7-6,7-5.9,14.5-7.3,3.3-.6,6.5-1.3,9.8-1.9,1-1.7,3.3-5.4,4.5-6.8,2.5-.7,5.1-1.5,7.6-2.3Z"/>
  <path class="st3" d="M254.8,310.9c8.2,0,18.8,2.1,26.5,4.8,1.6.6,8.4,3.4,9.4,3.5.9.7.5.6,1.5.7l.7-.4c1.8,1.3,5.4,1.4,7.6,3,4.3,3.1,4.9,8.2,3.5,13-.6,2-2.2,5.4-2.5,7.2-2.4-1-3.8-1.2-6.3-1.7-.2-1.2-.4-2.3,0-3.3.8-.8.7-.5,1.9-.8.2-.5.2-.3,0-.8-2.4.6-5-.1-6.7-1.9s-2.2-4.5-1.3-6.8l-.7-.2c-.2.4-.7,1.9-1.3,1.8-3.6-.7-7.8-1.4-11.2-2.7-.6-.2-3.9-3.8-4.6-4.5.7-1.7,1.4-3,2.3-4.6-4.9.8-10,.6-15.3,1.8-1.3-2.5-2.5-5.4-3.6-8Z"/>
  <path class="st7" d="M293,323.4c1.5-.6,3.1-.6,4.6,0,2.8,1,4.5,3.6,4.4,6.6-.1,2.9-2.1,5.4-4.9,6.2-2.4.6-5-.1-6.7-1.9s-2.2-4.5-1.3-6.8c.7-1.8,2.1-3.3,3.9-3.9Z"/>
  <path class="st2" d="M297.6,323.4c4.4-2.1,6.4,5.7,4.5,9.7-.8,1.8-2.3,3.1-4.2,3.7-.3,0-.5.1-.8.2.2-.5.2-.3,0-.8,2.8-.8,4.8-3.3,4.9-6.2.1-2.9-1.7-5.6-4.4-6.6Z"/>
  <path class="st12" d="M288.4,327.2c.3-1.6,2.4-4,4-4.3l.5.5c-1.8.7-3.2,2.1-3.9,3.9l-.7-.2Z"/>
  <path class="st7" d="M203.4,323.2c2.3-.7,4.8,0,6.6,1.6,1.7,1.7,2.4,4.2,1.8,6.5-.6,2.3-2.4,4.2-4.8,4.8-3.5.9-7.1-1.2-8.1-4.7-1-3.5,1-7.2,4.5-8.2Z"/>
  <path class="st11" d="M240.9,298.7c16.9-3.9,31.4.8,46.8,7.4,2.3,4.5,3.4,8.9,5.2,13.4l-.7.4c-1-.1-.7,0-1.5-.7-1.3-3.3-3.2-9.2-4.6-12.2-8.2-4.4-24.3-7.5-33.8-8.2-3.7-.3-8.2.2-11.5-.1Z"/>
  <path class="st3" d="M211.4,317.3c1,.4,8.6-2.9,10.2-3.4.3.8.4.9.4,1.8-4.1,2.1-9.1,6-13.6,3.9,1-.5,2.3-1.4,3-2.3Z"/>
  <path class="st11" d="M202.7,346.5c-.1-.1-2.6,0-3.7-.3h.6c0,.1.2-.3.2-.3,2.9-.2,9.5-2.2,11.7-1.5l.2.4-.3.4c-1.3.5-2.8.5-4.2.2l-.2.2.4.2c.3,1.2.3,1.7.5,2.9-1.4.1-3.6.5-4.8.1-.8-.8-.7-1.2-.4-2.2Z"/>
  <path class="st7" d="M207.4,345.7c.3,1.2.3,1.7.5,2.9-1.4.1-3.6.5-4.8.1-.8-.8-.7-1.2-.4-2.2,2.3.2,2.7.2,4.7-.8Z"/>
  <path class="st11" d="M214.4,306.3c-1.2,4-2.1,6.8-3,11-.7.8-2,1.7-3,2.3h0c-.2-1,5.2-11.8,6.1-13.2Z"/>
  <path class="st7" d="M293.7,346.3c1.2.4,2.4.7,3.3,1.7l.2.6c-1.2,1.9-6.4,2.1-5.3-1.6.6-.4,1.1-.5,1.8-.6Z"/>
  <path class="st3" d="M216.4,331.1c-.2-1.4-.3-2.6-.7-4-.5-1.6-1.5-3.6-1.7-5.2h.4c1.9,2.2,2,3.4,2.8,6.1.6,2,1.5,1.4,2.7,2.8l-.7.3c-.9-.2-1.8,0-2.8,0Z"/>
  <path class="st3" d="M247.5,309.8l.3.3c0,1.5.1,6.4,0,7.7l-.6.4c-2.1-2.6-.6-5.6.4-8.4Z"/>
  <path class="st3" d="M221.6,313.9c3-1,5.2-1.6,8.4-2.1-2.7,1.4-5.3,2.7-8,3.9,0-.9,0-1-.4-1.8Z"/>
  <path class="st0" d="M291.9,347c-.6-.7-3-.7-3.8-2,2-.4,3.7,1,5.6,1.4-.7.2-1.2.3-1.8.6Z"/>
  <path class="st11" d="M295.1,346.3c1.7-.4,5.2,0,6.3,1.5-.8.2-5.4-1-6.3-1.5Z"/>
  <path class="st11" d="M211.6,346.4c.5.3.3,0,.6.6l-.2.3c-.8.4-2.2.6-3.1.7-.3-.3-.4-.3-.7-.7l.2-.5c1.1-.5,2-.5,3.2-.6Z"/>
  <path class="st0" d="M211.3,348.7c.6,0,.4,0,1,.2v.4c-1,.6-1.7.5-2.8.4h-.9c0-.1,0-.4,0-.4,1-.4,1.7-.4,2.8-.5Z"/>
  <path class="st7" d="M218.9,277.7c1.4,0,2.6,0,3.6.9.4.9.3,1.1,0,2.1-.4.1-.8.2-1.2.4-1.1.3-1.2.3-2-.2-.5-.9-.4-2.1-.3-3.2Z"/>
  <path class="st1" d="M430.9,239.6l.3.3c.5,1.1.3,1.7.3,2.8l-.6-.3c-.4-1.1-.2-1.7,0-2.9Z"/>
  <path class="st10" d="M236.4,213.1l13.7-9.9,13.7,9.9-5.2-16.1,13.7-9.9h-16.9l-5.2-16.1-5.2,16.1h-16.9l13.7,9.9-5.2,16.1ZM240.6,207.3l2.9-8.9,4.7,3.4-7.6,5.5ZM259.6,207.3l-7.6-5.5,4.7-3.4,2.9,8.9ZM265.4,189.3l-7.6,5.5-1.8-5.5h9.4ZM250.1,178.1l2.9,8.9h-5.8l2.9-8.9ZM246.5,189.3h7.2l2.2,6.9-5.8,4.2-5.8-4.2,2.2-6.9ZM234.8,189.3h9.4l-1.8,5.5-7.6-5.5Z"/>
  <text transform="translate(76.5 258.6)"><tspan class="st5"><tspan x="0" y="0">FÉDÉRATION MAROCAINE</tspan></tspan><tspan class="st9"><tspan x="62.7" y="22.1">AUTOMOBILES ANCIENNES </tspan></tspan></text>
</svg>