<?xml version="1.0" encoding="UTF-8"?>
<svg id="Layer_1" xmlns="http://www.w3.org/2000/svg" version="1.1" viewBox="0 0 500 500">
  <!-- Generator: Adobe Illustrator 29.2.1, SVG Export Plug-In . SVG Version: 2.1.0 Build 116)  -->
  <defs>
    <style>
      .st0 {
        fill: #108b44;
      }

      .st1 {
        fill: #df1f26;
      }
    </style>
  </defs>
  <g id="_x31_O44aF.tif">
    <g>
      <path d="M321.7,234.4c-.8-.3-1.3-.3-2-.4-1.5,0-5,0-9.7,0-13,0-28.8,0-42.1-.1-3.3,0-6.2,0-9.3,0-.4,0-.7,0-1.1,0-1.2,0-1.1,0-1.4.9-2.7,8.7-5.3,17.4-8,26.3-3.4,11.1-8.2,27-11.2,36.7-.3.9.7.7,1.5.8.6,0,1.5,0,2.2,0,4.4,0,11,1.2,13.8-1.7.3-.4.6-.8.9-1.3,1.5-3,3-8.7,4.6-15,2.7-10.6,5.1-22,8.4-26.8.8-1.1,2.2-1.6,3.5-1.8,2.8-.4,8.4-.5,10.1,2,.3.6.3,1.2.1,1.9-1.3,7.1-11,31-13.4,40.2-.9,2.8,1.6,2.4,3.6,2.6,3.1,0,6.5.4,9.3,0,1.7-.3,2.6-.7,3.3-2.1,3.4-6.3,9-27.9,12.6-39.4.5-1.5.8-2.7,1.8-3.5,2.1-1.6,5.9-2.2,8.4-1.5,4.6,1.5,3.4,7.7,2.5,11.4-2.4,10.1-7.9,21.6-10.9,31.3-.2.9-.7,2-.4,2.9.6,1.2,2.3.9,3.5,1,3.8,0,8.3.4,11.1.1,1.9-.1,2-1.2,2.6-2.5.8-2.1,1.4-4.3,2.4-7.4,2.9-9.5,6.7-23.4,8.9-30.5.8-2.7,1.9-5.6,2.2-8.5.5-6.6-.8-13-7.9-15.3h0ZM447.9,233.8c-8.9-1.2-19.9-.8-30,.7-2.1.4-4.1.8-6,1.4-5.5,1.7-10.3,5.8-13.5,10.7-3.3,5.1-5.1,11-7,16.9-1,2.8-1.7,5.8-3.2,8.4-.4.5-.6,0-.8-1.2-.6-5.8-4.1-11.1-9.8-12.8-2.2-.7-4.4-.9-6.6-.8-5.2,0-12.5,0-17.9,0-1.5,0-3.7.2-4.7-.4-1.4-.7-1.4-2.7-.4-3.8,1.4-1.6,3.8-2.2,5.8-2.4,9.2-.6,32.4.9,38.1.1,1.7-.2,1.7-1.4,2.3-3.2.8-2.7,1.9-7.3,2.5-10.3.2-1,.7-3.2-.1-3.3-.3,0-.6-.1-.9-.1-8.7,0-24,0-33.2,0-2.5,0-5.2-.1-7.5.1-1.5.2-2.7.5-4.3,1-6,2.1-12.7,5.2-16.2,10.7-1.2,1.9-2.3,4.1-3.2,6.1-.8,1.7-1.1,2.6-1.1,4.7,0,3-.3,7-.2,10,.8,7.7,12.1,7.9,20.3,7.8,5.7,0,10.5-.7,15.7,0,2,.4,4.9,1.4,5.4,3.2.5,3.2-5.7,4.5-8.1,4.5-9.6.4-33.2-.9-39.1-.1-1.5.2-1.6,1.2-2.2,2.9-.8,2.5-2.3,7-3.2,10-.2.5-.3.9-.4,1.3-.5,1.6-1,2.6-.2,2.7,6.2,0,31.5,0,44,0,1.8,0,2.7.1,4.4-.3,6.4-1.7,12.2-7.6,16.3-12.8.3-.2.2.3,0,1.5-.5,2.1-1.3,5.5-1.8,7.8-.2,1-.4,1.8-.5,2.3,0,.5,0,.8,0,1,.4.6,1.3.4,1.9.5,2.9,0,9.2,0,12.6,0,1.1,0,2.5,0,3.1-1.1.5-.9.6-2,.8-3,1-4.8,2.3-9.7,4.7-14,.6-.9,1.1-1.3,2.1-1.4,5.5-.1,20.5,0,25,0,1.1,0,1.6,0,1.1,1.7-1.2,4.7-3,11.2-4.1,15.5-.6,2.3,1.1,2.1,2.8,2.2,3.6,0,7.7.5,10.9-.5,1.3-.4,2.6-1,3-2.2,1.8-5.4,8.1-25.5,12.2-38.2,1.3-4,2.3-7.1,2.7-8.6.5-1.6.4-3.4.3-5.2-.2-2.4-1.5-4.4-3.3-5.9-2.3-2.3-5.4-3.7-8.6-4.2h0ZM439.2,261.7c-.4.5-1,.6-1.6.6-1.1,0-3.1,0-5.4,0h-9.1c-3,0-6,0-9,0-3.6,0-4.6.5-3.7-3.1.7-2.6,3.3-9.8,6.3-9.8,5.2-.1,14.4,0,21,0,1.3,0,2.2,0,2.9.7,1.8,2.2.5,6.2-.2,8.7-.3,1.1-.8,2.5-1.2,3h0Z"/>
      <path d="M235.2,298c-.3.9-1.8.6-3.6.7-1.8,0-4.1,0-6.4,0s-4.4,0-6.3,0c-1.8,0-3.2.2-4.7-.2-1.2-.4-1.3-1.9-1.6-3-1-4.3-1.9-10.7-3.1-14.5-.4-1.4-1.4-2.4-2.8-2.7-3.1-.9-9.7-.9-13.1.5-1.8.6-2.9,2.1-3.5,3.8-1.9,4.5-2.3,11.2-5.1,14.7-1.8,1.6-4,1.5-6.8,1.6-3.1,0-6.3-.3-9.2-.3-.7,0-2.4,0-2.5-.3,1.8-6.8,17.8-56.5,19.9-63.6.2-.9,1.2-.8,2.3-.8,24.7,1.2,68.6-9.1,56.1,26.4-2.4,6.8-8.9,12.1-13,16.9-.7.9-1,1.7-1,2.8,0,3.2,2.3,10.2,3.8,15,.3,1,.8,2.2.6,3.1h0ZM227.6,251c-.9-.5-1.9-.6-2.9-.7-5.4-.4-15.4,0-21.5.3-.8,0-1.7,0-2.4.3-1.1.4-1.5,2-1.7,3.2-.3,1.4-.7,3.1-1,4.4-.2.9-.6,2.3,0,2.4,4.7.3,14.6,0,21.5.1,1,0,2,0,3,0,1.4,0,2.4,0,3.5-.7,2.9-1.8,5.2-7.2,1.5-9.3h0Z"/>
      <path class="st1" d="M167.8,236.4c-6.4,10.9-19.1,15.1-31,17.8-5.6,1.3-17.8,1.1-22.5,4.9-3.4,2.8,9,5.5,11.2,5.7,6.8.8,12.7.1,19.2-1.5,1.7-.4,2.5-2.5,2.2.9-6.9,7.1-17.6,8.5-26.3,12.7-20.3,9.8-38.4,27-54.5,42.4,2.7-28.1,24.5-75.9,55.8-80.1,15.2-2,31.2,2.3,46-2.9Z"/>
      <path class="st0" d="M92.8,232.5c1.2-.3,3.4-3.8,3.9-5.2l15.7-48,16.3,46.7c-14.2,4.2-28.8,13.5-39.2,24s-8,13.7-13,11.7c-10.4-4.1-24.4-20.4-35.7-25.2l-.9-4h52.8Z"/>
      <path class="st0" d="M160,320.7l-44.3-31.8c0-2.1,27.2-12.4,28.7-11.7,3.4,1.6,12.7,37.4,15.6,43.5Z"/>
      <path class="st1" d="M174.3,226c-11.3,13.4-30.6,5.2-45.6,6.5,0-1.8,3.8-2.7,5.3-3.2,13.5-4.7,26.5-2.7,40.4-3.3Z"/>
    </g>
  </g>
</svg>