<?xml version="1.0" encoding="UTF-8"?>
<svg id="Layer_1" xmlns="http://www.w3.org/2000/svg" version="1.1" viewBox="0 0 500 500">
  <!-- Generator: Adobe Illustrator 29.2.1, SVG Export Plug-In . SVG Version: 2.1.0 Build 116)  -->
  <defs>
    <style>
      .st0 {
        fill: #fed500;
      }

      .st0, .st1 {
        fill-rule: evenodd;
      }

      .st1 {
        fill: #ec2227;
      }
    </style>
  </defs>
  <path class="st1" d="M250,444.4c-15,0-22.7-9.8-22.7-9.8-12.3-.5-108.8-.3-108.8-.3l-9.4-79.3s-59.4-41.9-64.3-46.7C16.3,178.9,119.4,55.6,250,55.6s233.7,123.4,205.2,252.8c-4.8,4.8-64.3,46.7-64.3,46.7l-9.4,79.3s-96.5-.3-108.8.3c0,0-7.7,9.8-22.8,9.8h0Z"/>
  <path class="st0" d="M250.1,323.8l-9.1-228.9c-11-2.2-39,.4-54.1,11.7l43.7,218.1-59.7-209.1c-14.3-.2-43.2,24-45.3,31.2l87.1,185.6-97.8-169.6c-9.6,3.6-30.7,42.4-27.4,46.9l109,133.5-112.2-114s-14.6,22.2-5.1,59.8l63.4,45.8,7.9,62.5h77.7s12.7,12.1,21.7,12.1,21.7-12,21.7-12h77.7l7.9-62.5,63.4-45.8c9.5-37.6-5.1-59.8-5.1-59.8l-112.2,114,109-133.5c3.4-4.5-17.7-43.3-27.4-46.9l-97.8,169.6,87.1-185.6c-2.1-7.2-31-31.4-45.3-31.2l-59.7,209.1,43.8-218.1c-15-11.2-43.1-13.9-54.1-11.7l-9,228.9Z"/>
</svg>